M48
; DRILL file {KiCad 5.1.10-88a1d61d58~90~ubuntu21.04.1} date Fri Oct  8 21:36:14 2021
; FORMAT={-:-/ absolute / inch / decimal}
; #@! TF.CreationDate,2021-10-08T21:36:14+02:00
; #@! TF.GenerationSoftware,Kicad,Pcbnew,5.1.10-88a1d61d58~90~ubuntu21.04.1
; #@! TF.FileFunction,Plated,1,2,PTH
FMAT,2
INCH
T1C0.0150
T2C0.0315
T3C0.0354
T4C0.0394
T5C0.0433
T6C0.0469
T7C0.0512
T8C0.1260
%
G90
G05
T1
X3.5433Y-3.3189
T2
X3.1Y-2.4528
X3.1Y-2.689
X3.1Y-2.9331
X3.4724Y-3.6961
X3.4724Y-3.9961
X3.5Y-2.4528
X3.5Y-2.689
X3.5Y-2.9331
X3.6102Y-3.4843
X3.6764Y-2.589
X3.6764Y-2.689
X3.6764Y-2.789
X3.6764Y-2.889
X3.6764Y-2.989
X3.6764Y-3.089
X3.6764Y-3.189
X3.6772Y-3.6929
X3.7756Y-3.6929
X3.7795Y-3.3622
X3.878Y-3.3622
X3.9724Y-3.689
X3.9764Y-2.589
X3.9764Y-2.689
X3.9764Y-2.789
X3.9764Y-2.889
X3.9764Y-2.989
X3.9764Y-3.089
X3.9764Y-3.189
X4.0102Y-3.4843
X4.0709Y-3.689
X4.1496Y-2.3425
X4.1535Y-2.5906
X4.1535Y-2.8386
X4.2205Y-3.0866
X4.2205Y-3.2835
X4.2205Y-3.4173
X4.2205Y-3.8173
X4.3583Y-3.4189
X4.3583Y-3.8189
X4.5496Y-2.3425
X4.5535Y-2.5906
X4.5535Y-2.8386
T3
X2.9984Y-1.7126
X3.0984Y-1.7126
T4
X3.7402Y-4.3701
X3.7441Y-2.0079
X3.8386Y-4.3701
X3.8425Y-2.0079
X3.937Y-4.3701
X3.9409Y-2.0079
X4.5945Y-3.2362
X4.5945Y-3.3362
X4.5945Y-3.4362
X4.5945Y-3.5362
X4.5945Y-3.6362
X4.6945Y-3.2362
X4.6945Y-3.3362
X4.6945Y-3.4362
X4.6945Y-3.5362
X4.6945Y-3.6362
T6
X3.1575Y-3.6969
X3.1575Y-3.7969
X3.1575Y-3.8969
X3.1575Y-3.9969
X3.1575Y-4.1929
X3.1575Y-4.2929
T7
X3.2087Y-3.2205
X3.2087Y-3.4173
X3.4055Y-3.3189
T8
X2.9921Y-3.1102
X4.7638Y-1.5748
X4.7638Y-4.3307
T5
G00X3.6496Y-4.061
M15
G01X3.6496Y-4.0886
M16
G05
G00X3.6535Y-1.6988
M15
G01X3.6535Y-1.7264
M16
G05
G00X4.0276Y-4.061
M15
G01X4.0276Y-4.0886
M16
G05
G00X4.0315Y-1.6988
M15
G01X4.0315Y-1.7264
M16
G05
T0
M30
