%TF.GenerationSoftware,KiCad,Pcbnew,5.1.10-88a1d61d58~90~ubuntu21.04.1*%
%TF.CreationDate,2021-10-08T21:36:15+02:00*%
%TF.ProjectId,lfo,6c666f2e-6b69-4636-9164-5f7063625858,v1.0.0*%
%TF.SameCoordinates,Original*%
%TF.FileFunction,Copper,L2,Bot*%
%TF.FilePolarity,Positive*%
%FSLAX46Y46*%
G04 Gerber Fmt 4.6, Leading zero omitted, Abs format (unit mm)*
G04 Created by KiCad (PCBNEW 5.1.10-88a1d61d58~90~ubuntu21.04.1) date 2021-10-08 21:36:15*
%MOMM*%
%LPD*%
G01*
G04 APERTURE LIST*
%TA.AperFunction,ComponentPad*%
%ADD10O,2.400000X1.600000*%
%TD*%
%TA.AperFunction,ComponentPad*%
%ADD11R,2.400000X1.600000*%
%TD*%
%TA.AperFunction,ComponentPad*%
%ADD12O,2.720000X3.240000*%
%TD*%
%TA.AperFunction,ComponentPad*%
%ADD13C,1.800000*%
%TD*%
%TA.AperFunction,ComponentPad*%
%ADD14R,1.800000X1.800000*%
%TD*%
%TA.AperFunction,ComponentPad*%
%ADD15C,2.340000*%
%TD*%
%TA.AperFunction,ComponentPad*%
%ADD16O,1.600000X1.600000*%
%TD*%
%TA.AperFunction,ComponentPad*%
%ADD17C,1.600000*%
%TD*%
%TA.AperFunction,ComponentPad*%
%ADD18C,1.700000*%
%TD*%
%TA.AperFunction,ComponentPad*%
%ADD19O,2.190000X1.740000*%
%TD*%
%TA.AperFunction,ComponentPad*%
%ADD20R,1.600000X1.600000*%
%TD*%
%TA.AperFunction,ViaPad*%
%ADD21C,3.500000*%
%TD*%
%TA.AperFunction,ViaPad*%
%ADD22C,0.508000*%
%TD*%
%TA.AperFunction,Conductor*%
%ADD23C,0.508000*%
%TD*%
%TA.AperFunction,Conductor*%
%ADD24C,0.254000*%
%TD*%
%TA.AperFunction,Conductor*%
%ADD25C,0.100000*%
%TD*%
G04 APERTURE END LIST*
D10*
%TO.P,U1,14*%
%TO.N,Net-(D1-Pad1)*%
X93380000Y-81000000D03*
%TO.P,U1,7*%
%TO.N,SQUARE*%
X101000000Y-65760000D03*
%TO.P,U1,13*%
%TO.N,Net-(D1-Pad2)*%
X93380000Y-78460000D03*
%TO.P,U1,6*%
%TO.N,GND*%
X101000000Y-68300000D03*
%TO.P,U1,12*%
X93380000Y-75920000D03*
%TO.P,U1,5*%
%TO.N,Net-(R2-Pad1)*%
X101000000Y-70840000D03*
%TO.P,U1,11*%
%TO.N,-12V*%
X93380000Y-73380000D03*
%TO.P,U1,4*%
%TO.N,+12V*%
X101000000Y-73380000D03*
%TO.P,U1,10*%
%TO.N,GND*%
X93380000Y-70840000D03*
%TO.P,U1,3*%
X101000000Y-75920000D03*
%TO.P,U1,9*%
%TO.N,Net-(R3-Pad1)*%
X93380000Y-68300000D03*
%TO.P,U1,2*%
%TO.N,Net-(C1-Pad2)*%
X101000000Y-78460000D03*
%TO.P,U1,8*%
%TO.N,TRIANGLE*%
X93380000Y-65760000D03*
D11*
%TO.P,U1,1*%
%TO.N,LED*%
X101000000Y-81000000D03*
%TD*%
D12*
%TO.P,RV3,*%
%TO.N,*%
X102300000Y-103500000D03*
X92700000Y-103500000D03*
D13*
%TO.P,RV3,3*%
%TO.N,INPUT*%
X95000000Y-111000000D03*
%TO.P,RV3,2*%
%TO.N,OUT*%
X97500000Y-111000000D03*
D14*
%TO.P,RV3,1*%
%TO.N,GND*%
X100000000Y-111000000D03*
%TD*%
D12*
%TO.P,RV2,*%
%TO.N,*%
X102400000Y-43500000D03*
X92800000Y-43500000D03*
D13*
%TO.P,RV2,3*%
%TO.N,SQUARE*%
X95100000Y-51000000D03*
%TO.P,RV2,2*%
%TO.N,Net-(R1-Pad1)*%
X97600000Y-51000000D03*
D14*
%TO.P,RV2,1*%
X100100000Y-51000000D03*
%TD*%
D15*
%TO.P,RV1,1*%
%TO.N,+12V*%
X81500000Y-81800000D03*
%TO.P,RV1,2*%
%TO.N,Net-(R4-Pad2)*%
X86500000Y-84300000D03*
%TO.P,RV1,3*%
%TO.N,-12V*%
X81500000Y-86800000D03*
%TD*%
D16*
%TO.P,R10,2*%
%TO.N,Net-(J3-Pad1)*%
X110700000Y-86840000D03*
D17*
%TO.P,R10,1*%
%TO.N,-12V*%
X110700000Y-97000000D03*
%TD*%
D16*
%TO.P,R9,2*%
%TO.N,Net-(J3-Pad10)*%
X107200000Y-96960000D03*
D17*
%TO.P,R9,1*%
%TO.N,+12V*%
X107200000Y-86800000D03*
%TD*%
D16*
%TO.P,R7,2*%
%TO.N,Net-(R3-Pad1)*%
X78740000Y-62300000D03*
D17*
%TO.P,R7,1*%
%TO.N,TRIANGLE*%
X88900000Y-62300000D03*
%TD*%
D16*
%TO.P,R6,2*%
%TO.N,Net-(R2-Pad1)*%
X115660000Y-65800000D03*
D17*
%TO.P,R6,1*%
%TO.N,SQUARE*%
X105500000Y-65800000D03*
%TD*%
D16*
%TO.P,R5,2*%
%TO.N,LED*%
X101860000Y-88500000D03*
D17*
%TO.P,R5,1*%
%TO.N,Net-(D1-Pad2)*%
X91700000Y-88500000D03*
%TD*%
D16*
%TO.P,R4,2*%
%TO.N,Net-(R4-Pad2)*%
X78740000Y-68300000D03*
D17*
%TO.P,R4,1*%
%TO.N,Net-(R3-Pad1)*%
X88900000Y-68300000D03*
%TD*%
D16*
%TO.P,R3,2*%
%TO.N,LED*%
X78740000Y-74500000D03*
D17*
%TO.P,R3,1*%
%TO.N,Net-(R3-Pad1)*%
X88900000Y-74500000D03*
%TD*%
D16*
%TO.P,R2,2*%
%TO.N,LED*%
X115660000Y-72100000D03*
D17*
%TO.P,R2,1*%
%TO.N,Net-(R2-Pad1)*%
X105500000Y-72100000D03*
%TD*%
D16*
%TO.P,R1,2*%
%TO.N,Net-(C1-Pad2)*%
X115560000Y-59500000D03*
D17*
%TO.P,R1,1*%
%TO.N,Net-(R1-Pad1)*%
X105400000Y-59500000D03*
%TD*%
D18*
%TO.P,J3,10*%
%TO.N,Net-(J3-Pad10)*%
X119240000Y-92360000D03*
%TO.P,J3,8*%
%TO.N,GND*%
X119240000Y-89820000D03*
%TO.P,J3,6*%
X119240000Y-87280000D03*
%TO.P,J3,4*%
X119240000Y-84740000D03*
%TO.P,J3,2*%
%TO.N,Net-(J3-Pad1)*%
X119240000Y-82200000D03*
%TO.P,J3,9*%
%TO.N,Net-(J3-Pad10)*%
X116700000Y-92360000D03*
%TO.P,J3,7*%
%TO.N,GND*%
X116700000Y-89820000D03*
%TO.P,J3,5*%
X116700000Y-87280000D03*
%TO.P,J3,3*%
X116700000Y-84740000D03*
%TO.P,J3,1*%
%TO.N,Net-(J3-Pad1)*%
%TA.AperFunction,ComponentPad*%
G36*
G01*
X115850000Y-82800000D02*
X115850000Y-81600000D01*
G75*
G02*
X116100000Y-81350000I250000J0D01*
G01*
X117300000Y-81350000D01*
G75*
G02*
X117550000Y-81600000I0J-250000D01*
G01*
X117550000Y-82800000D01*
G75*
G02*
X117300000Y-83050000I-250000J0D01*
G01*
X116100000Y-83050000D01*
G75*
G02*
X115850000Y-82800000I0J250000D01*
G01*
G37*
%TD.AperFunction*%
%TD*%
D19*
%TO.P,J2,2*%
%TO.N,GND*%
X80200000Y-109040000D03*
%TO.P,J2,1*%
%TO.N,OUT*%
%TA.AperFunction,ComponentPad*%
G36*
G01*
X79354999Y-105630000D02*
X81045001Y-105630000D01*
G75*
G02*
X81295000Y-105879999I0J-249999D01*
G01*
X81295000Y-107120001D01*
G75*
G02*
X81045001Y-107370000I-249999J0D01*
G01*
X79354999Y-107370000D01*
G75*
G02*
X79105000Y-107120001I0J249999D01*
G01*
X79105000Y-105879999D01*
G75*
G02*
X79354999Y-105630000I249999J0D01*
G01*
G37*
%TD.AperFunction*%
%TD*%
%TO.P,J1,4*%
%TO.N,INPUT*%
X80200000Y-101520000D03*
%TO.P,J1,3*%
%TO.N,TRIANGLE*%
X80200000Y-98980000D03*
%TO.P,J1,2*%
%TO.N,SQUARE_POS*%
X80200000Y-96440000D03*
%TO.P,J1,1*%
%TO.N,SQUARE*%
%TA.AperFunction,ComponentPad*%
G36*
G01*
X79354999Y-93030000D02*
X81045001Y-93030000D01*
G75*
G02*
X81295000Y-93279999I0J-249999D01*
G01*
X81295000Y-94520001D01*
G75*
G02*
X81045001Y-94770000I-249999J0D01*
G01*
X79354999Y-94770000D01*
G75*
G02*
X79105000Y-94520001I0J249999D01*
G01*
X79105000Y-93279999D01*
G75*
G02*
X79354999Y-93030000I249999J0D01*
G01*
G37*
%TD.AperFunction*%
%TD*%
D16*
%TO.P,D2,2*%
%TO.N,SQUARE*%
X88200000Y-93880000D03*
D20*
%TO.P,D2,1*%
%TO.N,SQUARE_POS*%
X88200000Y-101500000D03*
%TD*%
D13*
%TO.P,D1,2*%
%TO.N,Net-(D1-Pad2)*%
X76160000Y-43500000D03*
D14*
%TO.P,D1,1*%
%TO.N,Net-(D1-Pad1)*%
X78700000Y-43500000D03*
%TD*%
D17*
%TO.P,C4,2*%
%TO.N,GND*%
X95900000Y-93800000D03*
D20*
%TO.P,C4,1*%
%TO.N,+12V*%
X93400000Y-93800000D03*
%TD*%
D17*
%TO.P,C3,2*%
%TO.N,-12V*%
X103400000Y-93700000D03*
D20*
%TO.P,C3,1*%
%TO.N,GND*%
X100900000Y-93700000D03*
%TD*%
D17*
%TO.P,C2,2*%
%TO.N,-12V*%
X96000000Y-85400000D03*
%TO.P,C2,1*%
%TO.N,+12V*%
X98500000Y-85400000D03*
%TD*%
%TO.P,C1,2*%
%TO.N,Net-(C1-Pad2)*%
X107200000Y-78400000D03*
%TO.P,C1,1*%
%TO.N,LED*%
X107200000Y-83400000D03*
%TD*%
D21*
%TO.N,GND*%
X121000000Y-40000000D03*
X121000000Y-110000000D03*
X76000000Y-79000000D03*
D22*
%TO.N,Net-(D1-Pad2)*%
X90000000Y-84300000D03*
%TD*%
D23*
%TO.N,Net-(C1-Pad2)*%
X107140000Y-78460000D02*
X107200000Y-78400000D01*
X101000000Y-78460000D02*
X107140000Y-78460000D01*
X116914001Y-68685999D02*
X107200000Y-78400000D01*
X116914001Y-60854001D02*
X116914001Y-68685999D01*
X115560000Y-59500000D02*
X116914001Y-60854001D01*
%TO.N,LED*%
X103400000Y-83400000D02*
X101000000Y-81000000D01*
X107200000Y-83400000D02*
X103400000Y-83400000D01*
X115660000Y-74940000D02*
X107200000Y-83400000D01*
X115660000Y-72100000D02*
X115660000Y-74940000D01*
X99745990Y-82254010D02*
X101000000Y-81000000D01*
X86494010Y-82254010D02*
X99745990Y-82254010D01*
X78740000Y-74500000D02*
X86494010Y-82254010D01*
X101860000Y-84940000D02*
X103400000Y-83400000D01*
X101860000Y-88500000D02*
X101860000Y-84940000D01*
%TO.N,-12V*%
X106598079Y-98214001D02*
X103400000Y-95015922D01*
X103400000Y-95015922D02*
X103400000Y-93700000D01*
X109485999Y-98214001D02*
X106598079Y-98214001D01*
X110700000Y-97000000D02*
X109485999Y-98214001D01*
%TO.N,+12V*%
X93400000Y-93700000D02*
X81500000Y-81800000D01*
X93400000Y-93800000D02*
X93400000Y-93700000D01*
X98500000Y-88700000D02*
X93400000Y-93800000D01*
X98500000Y-85400000D02*
X98500000Y-88700000D01*
%TO.N,Net-(D1-Pad2)*%
X95034010Y-62374010D02*
X76160000Y-43500000D01*
X95034010Y-76805990D02*
X95034010Y-62374010D01*
X93380000Y-78460000D02*
X95034010Y-76805990D01*
X90000000Y-86800000D02*
X91700000Y-88500000D01*
X90000000Y-84300000D02*
X90000000Y-86800000D01*
%TO.N,Net-(D1-Pad1)*%
X95742020Y-60542020D02*
X95742020Y-78637980D01*
X95742020Y-78637980D02*
X93380000Y-81000000D01*
X78700000Y-43500000D02*
X95742020Y-60542020D01*
%TO.N,SQUARE*%
X105460000Y-65760000D02*
X105500000Y-65800000D01*
X101000000Y-65760000D02*
X105460000Y-65760000D01*
X101000000Y-56900000D02*
X101000000Y-65760000D01*
X95100000Y-51000000D02*
X101000000Y-56900000D01*
X80220000Y-93880000D02*
X80200000Y-93900000D01*
X88200000Y-93880000D02*
X80220000Y-93880000D01*
%TO.N,SQUARE_POS*%
X83140000Y-96440000D02*
X88200000Y-101500000D01*
X80200000Y-96440000D02*
X83140000Y-96440000D01*
%TO.N,INPUT*%
X89680000Y-111000000D02*
X80200000Y-101520000D01*
X95000000Y-111000000D02*
X89680000Y-111000000D01*
%TO.N,TRIANGLE*%
X92360000Y-65760000D02*
X93380000Y-65760000D01*
X88900000Y-62300000D02*
X92360000Y-65760000D01*
%TO.N,Net-(J3-Pad10)*%
X119240000Y-92360000D02*
X116700000Y-92360000D01*
X111800000Y-92360000D02*
X107200000Y-96960000D01*
X116700000Y-92360000D02*
X111800000Y-92360000D01*
%TO.N,Net-(J3-Pad1)*%
X119240000Y-82200000D02*
X116700000Y-82200000D01*
X115340000Y-82200000D02*
X110700000Y-86840000D01*
X116700000Y-82200000D02*
X115340000Y-82200000D01*
%TO.N,Net-(R1-Pad1)*%
X97600000Y-51000000D02*
X100100000Y-51000000D01*
X100100000Y-54200000D02*
X105400000Y-59500000D01*
X100100000Y-51000000D02*
X100100000Y-54200000D01*
%TO.N,Net-(R2-Pad1)*%
X102260000Y-72100000D02*
X101000000Y-70840000D01*
X105500000Y-72100000D02*
X102260000Y-72100000D01*
X111800000Y-65800000D02*
X105500000Y-72100000D01*
X115660000Y-65800000D02*
X111800000Y-65800000D01*
%TO.N,Net-(R3-Pad1)*%
X93380000Y-68300000D02*
X88900000Y-68300000D01*
X82900000Y-62300000D02*
X88900000Y-68300000D01*
X78740000Y-62300000D02*
X82900000Y-62300000D01*
X88900000Y-68300000D02*
X88900000Y-74500000D01*
%TO.N,Net-(R4-Pad2)*%
X77485999Y-75285999D02*
X86500000Y-84300000D01*
X77485999Y-69554001D02*
X77485999Y-75285999D01*
X78740000Y-68300000D02*
X77485999Y-69554001D01*
%TD*%
D24*
%TO.N,GND*%
X123340000Y-112340000D02*
X101360364Y-112340000D01*
X101430537Y-112254494D01*
X101489502Y-112144180D01*
X101525812Y-112024482D01*
X101538072Y-111900000D01*
X101535000Y-111285750D01*
X101376250Y-111127000D01*
X100127000Y-111127000D01*
X100127000Y-111147000D01*
X99873000Y-111147000D01*
X99873000Y-111127000D01*
X99853000Y-111127000D01*
X99853000Y-110873000D01*
X99873000Y-110873000D01*
X99873000Y-109623750D01*
X100127000Y-109623750D01*
X100127000Y-110873000D01*
X101376250Y-110873000D01*
X101535000Y-110714250D01*
X101538072Y-110100000D01*
X101525812Y-109975518D01*
X101489502Y-109855820D01*
X101430537Y-109745506D01*
X101351185Y-109648815D01*
X101254494Y-109569463D01*
X101144180Y-109510498D01*
X101024482Y-109474188D01*
X100900000Y-109461928D01*
X100285750Y-109465000D01*
X100127000Y-109623750D01*
X99873000Y-109623750D01*
X99714250Y-109465000D01*
X99100000Y-109461928D01*
X98975518Y-109474188D01*
X98855820Y-109510498D01*
X98745506Y-109569463D01*
X98648815Y-109648815D01*
X98569463Y-109745506D01*
X98516120Y-109845303D01*
X98478505Y-109807688D01*
X98227095Y-109639701D01*
X97947743Y-109523989D01*
X97651184Y-109465000D01*
X97348816Y-109465000D01*
X97052257Y-109523989D01*
X96772905Y-109639701D01*
X96521495Y-109807688D01*
X96307688Y-110021495D01*
X96250000Y-110107831D01*
X96192312Y-110021495D01*
X95978505Y-109807688D01*
X95727095Y-109639701D01*
X95447743Y-109523989D01*
X95151184Y-109465000D01*
X94848816Y-109465000D01*
X94552257Y-109523989D01*
X94272905Y-109639701D01*
X94021495Y-109807688D01*
X93807688Y-110021495D01*
X93747883Y-110111000D01*
X90048236Y-110111000D01*
X83079239Y-103142003D01*
X90705000Y-103142003D01*
X90705000Y-103857998D01*
X90733867Y-104151088D01*
X90847943Y-104527147D01*
X91033193Y-104873725D01*
X91282498Y-105177503D01*
X91586276Y-105426807D01*
X91932854Y-105612057D01*
X92308913Y-105726133D01*
X92700000Y-105764652D01*
X93091088Y-105726133D01*
X93467147Y-105612057D01*
X93813725Y-105426807D01*
X94117503Y-105177503D01*
X94366807Y-104873725D01*
X94552057Y-104527147D01*
X94666133Y-104151087D01*
X94695000Y-103857997D01*
X94695000Y-103142003D01*
X100305000Y-103142003D01*
X100305000Y-103857998D01*
X100333867Y-104151088D01*
X100447943Y-104527147D01*
X100633193Y-104873725D01*
X100882498Y-105177503D01*
X101186276Y-105426807D01*
X101532854Y-105612057D01*
X101908913Y-105726133D01*
X102300000Y-105764652D01*
X102691088Y-105726133D01*
X103067147Y-105612057D01*
X103413725Y-105426807D01*
X103717503Y-105177503D01*
X103966807Y-104873725D01*
X104152057Y-104527147D01*
X104266133Y-104151087D01*
X104295000Y-103857997D01*
X104295000Y-103142002D01*
X104266133Y-102848912D01*
X104152057Y-102472853D01*
X103966807Y-102126275D01*
X103717503Y-101822497D01*
X103413725Y-101573193D01*
X103067146Y-101387943D01*
X102691087Y-101273867D01*
X102300000Y-101235348D01*
X101908912Y-101273867D01*
X101532853Y-101387943D01*
X101186275Y-101573193D01*
X100882497Y-101822497D01*
X100633193Y-102126275D01*
X100447943Y-102472854D01*
X100333867Y-102848913D01*
X100305000Y-103142003D01*
X94695000Y-103142003D01*
X94695000Y-103142002D01*
X94666133Y-102848912D01*
X94552057Y-102472853D01*
X94366807Y-102126275D01*
X94117503Y-101822497D01*
X93813725Y-101573193D01*
X93467146Y-101387943D01*
X93091087Y-101273867D01*
X92700000Y-101235348D01*
X92308912Y-101273867D01*
X91932853Y-101387943D01*
X91586275Y-101573193D01*
X91282497Y-101822497D01*
X91033193Y-102126275D01*
X90847943Y-102472854D01*
X90733867Y-102848913D01*
X90705000Y-103142003D01*
X83079239Y-103142003D01*
X81871926Y-101934691D01*
X81908224Y-101815032D01*
X81937282Y-101520000D01*
X81908224Y-101224968D01*
X81822166Y-100941275D01*
X81682417Y-100679821D01*
X81494345Y-100450655D01*
X81265179Y-100262583D01*
X81241638Y-100250000D01*
X81265179Y-100237417D01*
X81494345Y-100049345D01*
X81682417Y-99820179D01*
X81822166Y-99558725D01*
X81908224Y-99275032D01*
X81937282Y-98980000D01*
X81908224Y-98684968D01*
X81822166Y-98401275D01*
X81682417Y-98139821D01*
X81494345Y-97910655D01*
X81265179Y-97722583D01*
X81241638Y-97710000D01*
X81265179Y-97697417D01*
X81494345Y-97509345D01*
X81642351Y-97329000D01*
X82771765Y-97329000D01*
X86761928Y-101319164D01*
X86761928Y-102300000D01*
X86774188Y-102424482D01*
X86810498Y-102544180D01*
X86869463Y-102654494D01*
X86948815Y-102751185D01*
X87045506Y-102830537D01*
X87155820Y-102889502D01*
X87275518Y-102925812D01*
X87400000Y-102938072D01*
X89000000Y-102938072D01*
X89124482Y-102925812D01*
X89244180Y-102889502D01*
X89354494Y-102830537D01*
X89451185Y-102751185D01*
X89530537Y-102654494D01*
X89589502Y-102544180D01*
X89625812Y-102424482D01*
X89638072Y-102300000D01*
X89638072Y-100700000D01*
X89625812Y-100575518D01*
X89589502Y-100455820D01*
X89530537Y-100345506D01*
X89451185Y-100248815D01*
X89354494Y-100169463D01*
X89244180Y-100110498D01*
X89124482Y-100074188D01*
X89000000Y-100061928D01*
X88019164Y-100061928D01*
X83799499Y-95842264D01*
X83771659Y-95808341D01*
X83636291Y-95697247D01*
X83481851Y-95614697D01*
X83314274Y-95563864D01*
X83183667Y-95551000D01*
X83183660Y-95551000D01*
X83140000Y-95546700D01*
X83096340Y-95551000D01*
X81642351Y-95551000D01*
X81494345Y-95370655D01*
X81428886Y-95316934D01*
X81538387Y-95258405D01*
X81672962Y-95147962D01*
X81783405Y-95013387D01*
X81865472Y-94859851D01*
X81893031Y-94769000D01*
X87068151Y-94769000D01*
X87085363Y-94794759D01*
X87285241Y-94994637D01*
X87520273Y-95151680D01*
X87781426Y-95259853D01*
X88058665Y-95315000D01*
X88341335Y-95315000D01*
X88618574Y-95259853D01*
X88879727Y-95151680D01*
X89114759Y-94994637D01*
X89314637Y-94794759D01*
X89471680Y-94559727D01*
X89579853Y-94298574D01*
X89635000Y-94021335D01*
X89635000Y-93738665D01*
X89579853Y-93461426D01*
X89471680Y-93200273D01*
X89314637Y-92965241D01*
X89114759Y-92765363D01*
X88879727Y-92608320D01*
X88618574Y-92500147D01*
X88341335Y-92445000D01*
X88058665Y-92445000D01*
X87781426Y-92500147D01*
X87520273Y-92608320D01*
X87285241Y-92765363D01*
X87085363Y-92965241D01*
X87068151Y-92991000D01*
X81880897Y-92991000D01*
X81865472Y-92940149D01*
X81783405Y-92786613D01*
X81672962Y-92652038D01*
X81538387Y-92541595D01*
X81384851Y-92459528D01*
X81218255Y-92408992D01*
X81045001Y-92391928D01*
X79354999Y-92391928D01*
X79181745Y-92408992D01*
X79015149Y-92459528D01*
X78861613Y-92541595D01*
X78727038Y-92652038D01*
X78616595Y-92786613D01*
X78534528Y-92940149D01*
X78483992Y-93106745D01*
X78466928Y-93279999D01*
X78466928Y-94520001D01*
X78483992Y-94693255D01*
X78534528Y-94859851D01*
X78616595Y-95013387D01*
X78727038Y-95147962D01*
X78861613Y-95258405D01*
X78971114Y-95316934D01*
X78905655Y-95370655D01*
X78717583Y-95599821D01*
X78577834Y-95861275D01*
X78491776Y-96144968D01*
X78462718Y-96440000D01*
X78491776Y-96735032D01*
X78577834Y-97018725D01*
X78717583Y-97280179D01*
X78905655Y-97509345D01*
X79134821Y-97697417D01*
X79158362Y-97710000D01*
X79134821Y-97722583D01*
X78905655Y-97910655D01*
X78717583Y-98139821D01*
X78577834Y-98401275D01*
X78491776Y-98684968D01*
X78462718Y-98980000D01*
X78491776Y-99275032D01*
X78577834Y-99558725D01*
X78717583Y-99820179D01*
X78905655Y-100049345D01*
X79134821Y-100237417D01*
X79158362Y-100250000D01*
X79134821Y-100262583D01*
X78905655Y-100450655D01*
X78717583Y-100679821D01*
X78577834Y-100941275D01*
X78491776Y-101224968D01*
X78462718Y-101520000D01*
X78491776Y-101815032D01*
X78577834Y-102098725D01*
X78717583Y-102360179D01*
X78905655Y-102589345D01*
X79134821Y-102777417D01*
X79396275Y-102917166D01*
X79679968Y-103003224D01*
X79901064Y-103025000D01*
X80447765Y-103025000D01*
X89020506Y-111597742D01*
X89048341Y-111631659D01*
X89183709Y-111742753D01*
X89338149Y-111825303D01*
X89454892Y-111860716D01*
X89505725Y-111876136D01*
X89680000Y-111893301D01*
X89723668Y-111889000D01*
X93747883Y-111889000D01*
X93807688Y-111978505D01*
X94021495Y-112192312D01*
X94242525Y-112340000D01*
X73660000Y-112340000D01*
X73660000Y-109400031D01*
X78513698Y-109400031D01*
X78530449Y-109487591D01*
X78645526Y-109760809D01*
X78811694Y-110006326D01*
X79022567Y-110214708D01*
X79270042Y-110377947D01*
X79544608Y-110489769D01*
X79835714Y-110545877D01*
X80073000Y-110390376D01*
X80073000Y-109167000D01*
X80327000Y-109167000D01*
X80327000Y-110390376D01*
X80564286Y-110545877D01*
X80855392Y-110489769D01*
X81129958Y-110377947D01*
X81377433Y-110214708D01*
X81588306Y-110006326D01*
X81754474Y-109760809D01*
X81869551Y-109487591D01*
X81886302Y-109400031D01*
X81765246Y-109167000D01*
X80327000Y-109167000D01*
X80073000Y-109167000D01*
X78634754Y-109167000D01*
X78513698Y-109400031D01*
X73660000Y-109400031D01*
X73660000Y-105879999D01*
X78466928Y-105879999D01*
X78466928Y-107120001D01*
X78483992Y-107293255D01*
X78534528Y-107459851D01*
X78616595Y-107613387D01*
X78727038Y-107747962D01*
X78861613Y-107858405D01*
X78970590Y-107916655D01*
X78811694Y-108073674D01*
X78645526Y-108319191D01*
X78530449Y-108592409D01*
X78513698Y-108679969D01*
X78634754Y-108913000D01*
X80073000Y-108913000D01*
X80073000Y-108893000D01*
X80327000Y-108893000D01*
X80327000Y-108913000D01*
X81765246Y-108913000D01*
X81886302Y-108679969D01*
X81869551Y-108592409D01*
X81754474Y-108319191D01*
X81588306Y-108073674D01*
X81429410Y-107916655D01*
X81538387Y-107858405D01*
X81672962Y-107747962D01*
X81783405Y-107613387D01*
X81865472Y-107459851D01*
X81916008Y-107293255D01*
X81933072Y-107120001D01*
X81933072Y-105879999D01*
X81916008Y-105706745D01*
X81865472Y-105540149D01*
X81783405Y-105386613D01*
X81672962Y-105252038D01*
X81538387Y-105141595D01*
X81384851Y-105059528D01*
X81218255Y-105008992D01*
X81045001Y-104991928D01*
X79354999Y-104991928D01*
X79181745Y-105008992D01*
X79015149Y-105059528D01*
X78861613Y-105141595D01*
X78727038Y-105252038D01*
X78616595Y-105386613D01*
X78534528Y-105540149D01*
X78483992Y-105706745D01*
X78466928Y-105879999D01*
X73660000Y-105879999D01*
X73660000Y-86622223D01*
X79695000Y-86622223D01*
X79695000Y-86977777D01*
X79764365Y-87326499D01*
X79900429Y-87654988D01*
X80097965Y-87950621D01*
X80349379Y-88202035D01*
X80645012Y-88399571D01*
X80973501Y-88535635D01*
X81322223Y-88605000D01*
X81677777Y-88605000D01*
X82026499Y-88535635D01*
X82354988Y-88399571D01*
X82650621Y-88202035D01*
X82902035Y-87950621D01*
X83099571Y-87654988D01*
X83235635Y-87326499D01*
X83305000Y-86977777D01*
X83305000Y-86622223D01*
X83235635Y-86273501D01*
X83099571Y-85945012D01*
X82902035Y-85649379D01*
X82650621Y-85397965D01*
X82354988Y-85200429D01*
X82026499Y-85064365D01*
X81677777Y-84995000D01*
X81322223Y-84995000D01*
X80973501Y-85064365D01*
X80645012Y-85200429D01*
X80349379Y-85397965D01*
X80097965Y-85649379D01*
X79900429Y-85945012D01*
X79764365Y-86273501D01*
X79695000Y-86622223D01*
X73660000Y-86622223D01*
X73660000Y-43348816D01*
X74625000Y-43348816D01*
X74625000Y-43651184D01*
X74683989Y-43947743D01*
X74799701Y-44227095D01*
X74967688Y-44478505D01*
X75181495Y-44692312D01*
X75432905Y-44860299D01*
X75712257Y-44976011D01*
X76008816Y-45035000D01*
X76311184Y-45035000D01*
X76416764Y-45013999D01*
X94145011Y-62742247D01*
X94145011Y-64371154D01*
X94061309Y-64345764D01*
X93850492Y-64325000D01*
X92909508Y-64325000D01*
X92698691Y-64345764D01*
X92428192Y-64427818D01*
X92334913Y-64477677D01*
X90328956Y-62471721D01*
X90335000Y-62441335D01*
X90335000Y-62158665D01*
X90279853Y-61881426D01*
X90171680Y-61620273D01*
X90014637Y-61385241D01*
X89814759Y-61185363D01*
X89579727Y-61028320D01*
X89318574Y-60920147D01*
X89041335Y-60865000D01*
X88758665Y-60865000D01*
X88481426Y-60920147D01*
X88220273Y-61028320D01*
X87985241Y-61185363D01*
X87785363Y-61385241D01*
X87628320Y-61620273D01*
X87520147Y-61881426D01*
X87465000Y-62158665D01*
X87465000Y-62441335D01*
X87520147Y-62718574D01*
X87628320Y-62979727D01*
X87785363Y-63214759D01*
X87985241Y-63414637D01*
X88220273Y-63571680D01*
X88481426Y-63679853D01*
X88758665Y-63735000D01*
X89041335Y-63735000D01*
X89071721Y-63728956D01*
X91644877Y-66302113D01*
X91647818Y-66311808D01*
X91781068Y-66561101D01*
X91960392Y-66779608D01*
X92178899Y-66958932D01*
X92311858Y-67030000D01*
X92178899Y-67101068D01*
X91960392Y-67280392D01*
X91853205Y-67411000D01*
X90031849Y-67411000D01*
X90014637Y-67385241D01*
X89814759Y-67185363D01*
X89579727Y-67028320D01*
X89318574Y-66920147D01*
X89041335Y-66865000D01*
X88758665Y-66865000D01*
X88728279Y-66871044D01*
X83559499Y-61702264D01*
X83531659Y-61668341D01*
X83396291Y-61557247D01*
X83241851Y-61474697D01*
X83074274Y-61423864D01*
X82943667Y-61411000D01*
X82943660Y-61411000D01*
X82900000Y-61406700D01*
X82856340Y-61411000D01*
X79871849Y-61411000D01*
X79854637Y-61385241D01*
X79654759Y-61185363D01*
X79419727Y-61028320D01*
X79158574Y-60920147D01*
X78881335Y-60865000D01*
X78598665Y-60865000D01*
X78321426Y-60920147D01*
X78060273Y-61028320D01*
X77825241Y-61185363D01*
X77625363Y-61385241D01*
X77468320Y-61620273D01*
X77360147Y-61881426D01*
X77305000Y-62158665D01*
X77305000Y-62441335D01*
X77360147Y-62718574D01*
X77468320Y-62979727D01*
X77625363Y-63214759D01*
X77825241Y-63414637D01*
X78060273Y-63571680D01*
X78321426Y-63679853D01*
X78598665Y-63735000D01*
X78881335Y-63735000D01*
X79158574Y-63679853D01*
X79419727Y-63571680D01*
X79654759Y-63414637D01*
X79854637Y-63214759D01*
X79871849Y-63189000D01*
X82531765Y-63189000D01*
X87471044Y-68128279D01*
X87465000Y-68158665D01*
X87465000Y-68441335D01*
X87520147Y-68718574D01*
X87628320Y-68979727D01*
X87785363Y-69214759D01*
X87985241Y-69414637D01*
X88011000Y-69431849D01*
X88011001Y-73368151D01*
X87985241Y-73385363D01*
X87785363Y-73585241D01*
X87628320Y-73820273D01*
X87520147Y-74081426D01*
X87465000Y-74358665D01*
X87465000Y-74641335D01*
X87520147Y-74918574D01*
X87628320Y-75179727D01*
X87785363Y-75414759D01*
X87985241Y-75614637D01*
X88220273Y-75771680D01*
X88481426Y-75879853D01*
X88758665Y-75935000D01*
X89041335Y-75935000D01*
X89318574Y-75879853D01*
X89579727Y-75771680D01*
X89814759Y-75614637D01*
X90014637Y-75414759D01*
X90171680Y-75179727D01*
X90279853Y-74918574D01*
X90335000Y-74641335D01*
X90335000Y-74358665D01*
X90279853Y-74081426D01*
X90171680Y-73820273D01*
X90014637Y-73585241D01*
X89814759Y-73385363D01*
X89789000Y-73368151D01*
X89789000Y-69431849D01*
X89814759Y-69414637D01*
X90014637Y-69214759D01*
X90031849Y-69189000D01*
X91853205Y-69189000D01*
X91960392Y-69319608D01*
X92178899Y-69498932D01*
X92306741Y-69567265D01*
X92077161Y-69717399D01*
X91875500Y-69915105D01*
X91716285Y-70148354D01*
X91605633Y-70408182D01*
X91588096Y-70490961D01*
X91710085Y-70713000D01*
X93253000Y-70713000D01*
X93253000Y-70693000D01*
X93507000Y-70693000D01*
X93507000Y-70713000D01*
X93527000Y-70713000D01*
X93527000Y-70967000D01*
X93507000Y-70967000D01*
X93507000Y-70987000D01*
X93253000Y-70987000D01*
X93253000Y-70967000D01*
X91710085Y-70967000D01*
X91588096Y-71189039D01*
X91605633Y-71271818D01*
X91716285Y-71531646D01*
X91875500Y-71764895D01*
X92077161Y-71962601D01*
X92306741Y-72112735D01*
X92178899Y-72181068D01*
X91960392Y-72360392D01*
X91781068Y-72578899D01*
X91647818Y-72828192D01*
X91565764Y-73098691D01*
X91538057Y-73380000D01*
X91565764Y-73661309D01*
X91647818Y-73931808D01*
X91781068Y-74181101D01*
X91960392Y-74399608D01*
X92178899Y-74578932D01*
X92306741Y-74647265D01*
X92077161Y-74797399D01*
X91875500Y-74995105D01*
X91716285Y-75228354D01*
X91605633Y-75488182D01*
X91588096Y-75570961D01*
X91710085Y-75793000D01*
X93253000Y-75793000D01*
X93253000Y-75773000D01*
X93507000Y-75773000D01*
X93507000Y-75793000D01*
X93527000Y-75793000D01*
X93527000Y-76047000D01*
X93507000Y-76047000D01*
X93507000Y-76067000D01*
X93253000Y-76067000D01*
X93253000Y-76047000D01*
X91710085Y-76047000D01*
X91588096Y-76269039D01*
X91605633Y-76351818D01*
X91716285Y-76611646D01*
X91875500Y-76844895D01*
X92077161Y-77042601D01*
X92306741Y-77192735D01*
X92178899Y-77261068D01*
X91960392Y-77440392D01*
X91781068Y-77658899D01*
X91647818Y-77908192D01*
X91565764Y-78178691D01*
X91538057Y-78460000D01*
X91565764Y-78741309D01*
X91647818Y-79011808D01*
X91781068Y-79261101D01*
X91960392Y-79479608D01*
X92178899Y-79658932D01*
X92311858Y-79730000D01*
X92178899Y-79801068D01*
X91960392Y-79980392D01*
X91781068Y-80198899D01*
X91647818Y-80448192D01*
X91565764Y-80718691D01*
X91538057Y-81000000D01*
X91565764Y-81281309D01*
X91591154Y-81365010D01*
X86862246Y-81365010D01*
X80168956Y-74671721D01*
X80175000Y-74641335D01*
X80175000Y-74358665D01*
X80119853Y-74081426D01*
X80011680Y-73820273D01*
X79854637Y-73585241D01*
X79654759Y-73385363D01*
X79419727Y-73228320D01*
X79158574Y-73120147D01*
X78881335Y-73065000D01*
X78598665Y-73065000D01*
X78374999Y-73109491D01*
X78374999Y-69922236D01*
X78568280Y-69728956D01*
X78598665Y-69735000D01*
X78881335Y-69735000D01*
X79158574Y-69679853D01*
X79419727Y-69571680D01*
X79654759Y-69414637D01*
X79854637Y-69214759D01*
X80011680Y-68979727D01*
X80119853Y-68718574D01*
X80175000Y-68441335D01*
X80175000Y-68158665D01*
X80119853Y-67881426D01*
X80011680Y-67620273D01*
X79854637Y-67385241D01*
X79654759Y-67185363D01*
X79419727Y-67028320D01*
X79158574Y-66920147D01*
X78881335Y-66865000D01*
X78598665Y-66865000D01*
X78321426Y-66920147D01*
X78060273Y-67028320D01*
X77825241Y-67185363D01*
X77625363Y-67385241D01*
X77468320Y-67620273D01*
X77360147Y-67881426D01*
X77305000Y-68158665D01*
X77305000Y-68441335D01*
X77311044Y-68471720D01*
X76888263Y-68894502D01*
X76854340Y-68922342D01*
X76743246Y-69057711D01*
X76660696Y-69212151D01*
X76609863Y-69379728D01*
X76596999Y-69510335D01*
X76596999Y-69510341D01*
X76592699Y-69554001D01*
X76596999Y-69597661D01*
X76597000Y-75242329D01*
X76592699Y-75285999D01*
X76609863Y-75460273D01*
X76660697Y-75627851D01*
X76690043Y-75682753D01*
X76743247Y-75782290D01*
X76854341Y-75917658D01*
X76888258Y-75945493D01*
X81001550Y-80058786D01*
X80973501Y-80064365D01*
X80645012Y-80200429D01*
X80349379Y-80397965D01*
X80097965Y-80649379D01*
X79900429Y-80945012D01*
X79764365Y-81273501D01*
X79695000Y-81622223D01*
X79695000Y-81977777D01*
X79764365Y-82326499D01*
X79900429Y-82654988D01*
X80097965Y-82950621D01*
X80349379Y-83202035D01*
X80645012Y-83399571D01*
X80973501Y-83535635D01*
X81322223Y-83605000D01*
X81677777Y-83605000D01*
X81986380Y-83543615D01*
X91961928Y-93519163D01*
X91961928Y-94600000D01*
X91974188Y-94724482D01*
X92010498Y-94844180D01*
X92069463Y-94954494D01*
X92148815Y-95051185D01*
X92245506Y-95130537D01*
X92355820Y-95189502D01*
X92475518Y-95225812D01*
X92600000Y-95238072D01*
X94200000Y-95238072D01*
X94324482Y-95225812D01*
X94444180Y-95189502D01*
X94554494Y-95130537D01*
X94651185Y-95051185D01*
X94730537Y-94954494D01*
X94789502Y-94844180D01*
X94805117Y-94792702D01*
X95086903Y-94792702D01*
X95158486Y-95036671D01*
X95413996Y-95157571D01*
X95688184Y-95226300D01*
X95970512Y-95240217D01*
X96250130Y-95198787D01*
X96516292Y-95103603D01*
X96641514Y-95036671D01*
X96713097Y-94792702D01*
X95900000Y-93979605D01*
X95086903Y-94792702D01*
X94805117Y-94792702D01*
X94825812Y-94724482D01*
X94838072Y-94600000D01*
X94838072Y-94592785D01*
X94907298Y-94613097D01*
X95720395Y-93800000D01*
X96079605Y-93800000D01*
X96892702Y-94613097D01*
X97136671Y-94541514D01*
X97156314Y-94500000D01*
X99461928Y-94500000D01*
X99474188Y-94624482D01*
X99510498Y-94744180D01*
X99569463Y-94854494D01*
X99648815Y-94951185D01*
X99745506Y-95030537D01*
X99855820Y-95089502D01*
X99975518Y-95125812D01*
X100100000Y-95138072D01*
X100614250Y-95135000D01*
X100773000Y-94976250D01*
X100773000Y-93827000D01*
X99623750Y-93827000D01*
X99465000Y-93985750D01*
X99461928Y-94500000D01*
X97156314Y-94500000D01*
X97257571Y-94286004D01*
X97326300Y-94011816D01*
X97340217Y-93729488D01*
X97298787Y-93449870D01*
X97203603Y-93183708D01*
X97136671Y-93058486D01*
X96892702Y-92986903D01*
X96079605Y-93800000D01*
X95720395Y-93800000D01*
X95706253Y-93785858D01*
X95885858Y-93606253D01*
X95900000Y-93620395D01*
X96620395Y-92900000D01*
X99461928Y-92900000D01*
X99465000Y-93414250D01*
X99623750Y-93573000D01*
X100773000Y-93573000D01*
X100773000Y-92423750D01*
X101027000Y-92423750D01*
X101027000Y-93573000D01*
X101047000Y-93573000D01*
X101047000Y-93827000D01*
X101027000Y-93827000D01*
X101027000Y-94976250D01*
X101185750Y-95135000D01*
X101700000Y-95138072D01*
X101824482Y-95125812D01*
X101944180Y-95089502D01*
X102054494Y-95030537D01*
X102151185Y-94951185D01*
X102230537Y-94854494D01*
X102289502Y-94744180D01*
X102318661Y-94648057D01*
X102485241Y-94814637D01*
X102511000Y-94831849D01*
X102511000Y-94972261D01*
X102506700Y-95015922D01*
X102511000Y-95059582D01*
X102511000Y-95059588D01*
X102523864Y-95190195D01*
X102574697Y-95357772D01*
X102657247Y-95512212D01*
X102768341Y-95647581D01*
X102802264Y-95675421D01*
X105938585Y-98811743D01*
X105966420Y-98845660D01*
X106101788Y-98956754D01*
X106256228Y-99039304D01*
X106372971Y-99074717D01*
X106423804Y-99090137D01*
X106440404Y-99091772D01*
X106554412Y-99103001D01*
X106554419Y-99103001D01*
X106598079Y-99107301D01*
X106641739Y-99103001D01*
X109442339Y-99103001D01*
X109485999Y-99107301D01*
X109529659Y-99103001D01*
X109529666Y-99103001D01*
X109660273Y-99090137D01*
X109827850Y-99039304D01*
X109982290Y-98956754D01*
X110117658Y-98845660D01*
X110145498Y-98811737D01*
X110528279Y-98428956D01*
X110558665Y-98435000D01*
X110841335Y-98435000D01*
X111118574Y-98379853D01*
X111379727Y-98271680D01*
X111614759Y-98114637D01*
X111814637Y-97914759D01*
X111971680Y-97679727D01*
X112079853Y-97418574D01*
X112135000Y-97141335D01*
X112135000Y-96858665D01*
X112079853Y-96581426D01*
X111971680Y-96320273D01*
X111814637Y-96085241D01*
X111614759Y-95885363D01*
X111379727Y-95728320D01*
X111118574Y-95620147D01*
X110841335Y-95565000D01*
X110558665Y-95565000D01*
X110281426Y-95620147D01*
X110020273Y-95728320D01*
X109785241Y-95885363D01*
X109585363Y-96085241D01*
X109428320Y-96320273D01*
X109320147Y-96581426D01*
X109265000Y-96858665D01*
X109265000Y-97141335D01*
X109271044Y-97171721D01*
X109117764Y-97325001D01*
X108590509Y-97325001D01*
X108635000Y-97101335D01*
X108635000Y-96818665D01*
X108628956Y-96788279D01*
X112168235Y-93249000D01*
X115508017Y-93249000D01*
X115546525Y-93306632D01*
X115753368Y-93513475D01*
X115996589Y-93675990D01*
X116266842Y-93787932D01*
X116553740Y-93845000D01*
X116846260Y-93845000D01*
X117133158Y-93787932D01*
X117403411Y-93675990D01*
X117646632Y-93513475D01*
X117853475Y-93306632D01*
X117891983Y-93249000D01*
X118048017Y-93249000D01*
X118086525Y-93306632D01*
X118293368Y-93513475D01*
X118536589Y-93675990D01*
X118806842Y-93787932D01*
X119093740Y-93845000D01*
X119386260Y-93845000D01*
X119673158Y-93787932D01*
X119943411Y-93675990D01*
X120186632Y-93513475D01*
X120393475Y-93306632D01*
X120555990Y-93063411D01*
X120667932Y-92793158D01*
X120725000Y-92506260D01*
X120725000Y-92213740D01*
X120667932Y-91926842D01*
X120555990Y-91656589D01*
X120393475Y-91413368D01*
X120186632Y-91206525D01*
X120013271Y-91090689D01*
X120088792Y-90848397D01*
X119240000Y-89999605D01*
X118391208Y-90848397D01*
X118466729Y-91090689D01*
X118293368Y-91206525D01*
X118086525Y-91413368D01*
X118048017Y-91471000D01*
X117891983Y-91471000D01*
X117853475Y-91413368D01*
X117646632Y-91206525D01*
X117473271Y-91090689D01*
X117548792Y-90848397D01*
X116700000Y-89999605D01*
X115851208Y-90848397D01*
X115926729Y-91090689D01*
X115753368Y-91206525D01*
X115546525Y-91413368D01*
X115508017Y-91471000D01*
X111843659Y-91471000D01*
X111799999Y-91466700D01*
X111756339Y-91471000D01*
X111756333Y-91471000D01*
X111658924Y-91480594D01*
X111625724Y-91483864D01*
X111524058Y-91514704D01*
X111458149Y-91534697D01*
X111303709Y-91617247D01*
X111168341Y-91728341D01*
X111140501Y-91762264D01*
X107371721Y-95531044D01*
X107341335Y-95525000D01*
X107058665Y-95525000D01*
X106781426Y-95580147D01*
X106520273Y-95688320D01*
X106285241Y-95845363D01*
X106085363Y-96045241D01*
X105928320Y-96280273D01*
X105926348Y-96285034D01*
X104385355Y-94744041D01*
X104514637Y-94614759D01*
X104671680Y-94379727D01*
X104779853Y-94118574D01*
X104835000Y-93841335D01*
X104835000Y-93558665D01*
X104779853Y-93281426D01*
X104671680Y-93020273D01*
X104514637Y-92785241D01*
X104314759Y-92585363D01*
X104079727Y-92428320D01*
X103818574Y-92320147D01*
X103541335Y-92265000D01*
X103258665Y-92265000D01*
X102981426Y-92320147D01*
X102720273Y-92428320D01*
X102485241Y-92585363D01*
X102318661Y-92751943D01*
X102289502Y-92655820D01*
X102230537Y-92545506D01*
X102151185Y-92448815D01*
X102054494Y-92369463D01*
X101944180Y-92310498D01*
X101824482Y-92274188D01*
X101700000Y-92261928D01*
X101185750Y-92265000D01*
X101027000Y-92423750D01*
X100773000Y-92423750D01*
X100614250Y-92265000D01*
X100100000Y-92261928D01*
X99975518Y-92274188D01*
X99855820Y-92310498D01*
X99745506Y-92369463D01*
X99648815Y-92448815D01*
X99569463Y-92545506D01*
X99510498Y-92655820D01*
X99474188Y-92775518D01*
X99461928Y-92900000D01*
X96620395Y-92900000D01*
X96713097Y-92807298D01*
X96641514Y-92563329D01*
X96386004Y-92442429D01*
X96111816Y-92373700D01*
X96084864Y-92372371D01*
X99097742Y-89359494D01*
X99131659Y-89331659D01*
X99242753Y-89196291D01*
X99325303Y-89041851D01*
X99362698Y-88918574D01*
X99376136Y-88874276D01*
X99379406Y-88841076D01*
X99389000Y-88743667D01*
X99389000Y-88743661D01*
X99393300Y-88700001D01*
X99389000Y-88656341D01*
X99389000Y-86531849D01*
X99414759Y-86514637D01*
X99614637Y-86314759D01*
X99771680Y-86079727D01*
X99879853Y-85818574D01*
X99935000Y-85541335D01*
X99935000Y-85258665D01*
X99879853Y-84981426D01*
X99771680Y-84720273D01*
X99614637Y-84485241D01*
X99414759Y-84285363D01*
X99179727Y-84128320D01*
X98918574Y-84020147D01*
X98641335Y-83965000D01*
X98358665Y-83965000D01*
X98081426Y-84020147D01*
X97820273Y-84128320D01*
X97585241Y-84285363D01*
X97385363Y-84485241D01*
X97250000Y-84687827D01*
X97114637Y-84485241D01*
X96914759Y-84285363D01*
X96679727Y-84128320D01*
X96418574Y-84020147D01*
X96141335Y-83965000D01*
X95858665Y-83965000D01*
X95581426Y-84020147D01*
X95320273Y-84128320D01*
X95085241Y-84285363D01*
X94885363Y-84485241D01*
X94728320Y-84720273D01*
X94620147Y-84981426D01*
X94565000Y-85258665D01*
X94565000Y-85541335D01*
X94620147Y-85818574D01*
X94728320Y-86079727D01*
X94885363Y-86314759D01*
X95085241Y-86514637D01*
X95320273Y-86671680D01*
X95581426Y-86779853D01*
X95858665Y-86835000D01*
X96141335Y-86835000D01*
X96418574Y-86779853D01*
X96679727Y-86671680D01*
X96914759Y-86514637D01*
X97114637Y-86314759D01*
X97250000Y-86112173D01*
X97385363Y-86314759D01*
X97585241Y-86514637D01*
X97611000Y-86531849D01*
X97611001Y-88331763D01*
X93580837Y-92361928D01*
X93319163Y-92361928D01*
X87757235Y-86800000D01*
X89106700Y-86800000D01*
X89123864Y-86974274D01*
X89174698Y-87141852D01*
X89257248Y-87296291D01*
X89330348Y-87385363D01*
X89368342Y-87431659D01*
X89402259Y-87459494D01*
X90271044Y-88328280D01*
X90265000Y-88358665D01*
X90265000Y-88641335D01*
X90320147Y-88918574D01*
X90428320Y-89179727D01*
X90585363Y-89414759D01*
X90785241Y-89614637D01*
X91020273Y-89771680D01*
X91281426Y-89879853D01*
X91558665Y-89935000D01*
X91841335Y-89935000D01*
X92118574Y-89879853D01*
X92379727Y-89771680D01*
X92614759Y-89614637D01*
X92814637Y-89414759D01*
X92971680Y-89179727D01*
X93079853Y-88918574D01*
X93135000Y-88641335D01*
X93135000Y-88358665D01*
X93079853Y-88081426D01*
X92971680Y-87820273D01*
X92814637Y-87585241D01*
X92614759Y-87385363D01*
X92379727Y-87228320D01*
X92118574Y-87120147D01*
X91841335Y-87065000D01*
X91558665Y-87065000D01*
X91528280Y-87071044D01*
X90889000Y-86431765D01*
X90889000Y-84212441D01*
X90880437Y-84169391D01*
X90876136Y-84125726D01*
X90863399Y-84083737D01*
X90854836Y-84040688D01*
X90838041Y-84000143D01*
X90825303Y-83958149D01*
X90804614Y-83919443D01*
X90787821Y-83878901D01*
X90763442Y-83842415D01*
X90742753Y-83803709D01*
X90714912Y-83769785D01*
X90690531Y-83733296D01*
X90659499Y-83702264D01*
X90631659Y-83668341D01*
X90597737Y-83640502D01*
X90566704Y-83609469D01*
X90530211Y-83585085D01*
X90496290Y-83557247D01*
X90457589Y-83536561D01*
X90421099Y-83512179D01*
X90380552Y-83495384D01*
X90341850Y-83474697D01*
X90299860Y-83461960D01*
X90259312Y-83445164D01*
X90216260Y-83436600D01*
X90174273Y-83423864D01*
X90130610Y-83419563D01*
X90087559Y-83411000D01*
X90043667Y-83411000D01*
X90000000Y-83406699D01*
X89956333Y-83411000D01*
X89912441Y-83411000D01*
X89869391Y-83419563D01*
X89825726Y-83423864D01*
X89783737Y-83436601D01*
X89740688Y-83445164D01*
X89700143Y-83461959D01*
X89658149Y-83474697D01*
X89619443Y-83495386D01*
X89578901Y-83512179D01*
X89542415Y-83536558D01*
X89503709Y-83557247D01*
X89469785Y-83585088D01*
X89433296Y-83609469D01*
X89402264Y-83640501D01*
X89368341Y-83668341D01*
X89340502Y-83702263D01*
X89309469Y-83733296D01*
X89285085Y-83769789D01*
X89257247Y-83803710D01*
X89236561Y-83842411D01*
X89212179Y-83878901D01*
X89195384Y-83919448D01*
X89174697Y-83958150D01*
X89161960Y-84000140D01*
X89145164Y-84040688D01*
X89136600Y-84083740D01*
X89123864Y-84125727D01*
X89119563Y-84169390D01*
X89111000Y-84212441D01*
X89111000Y-84256334D01*
X89111001Y-86756330D01*
X89106700Y-86800000D01*
X87757235Y-86800000D01*
X86998449Y-86041214D01*
X87026499Y-86035635D01*
X87354988Y-85899571D01*
X87650621Y-85702035D01*
X87902035Y-85450621D01*
X88099571Y-85154988D01*
X88235635Y-84826499D01*
X88305000Y-84477777D01*
X88305000Y-84122223D01*
X88235635Y-83773501D01*
X88099571Y-83445012D01*
X87902035Y-83149379D01*
X87895666Y-83143010D01*
X99702330Y-83143010D01*
X99745990Y-83147310D01*
X99789650Y-83143010D01*
X99789657Y-83143010D01*
X99920264Y-83130146D01*
X100087841Y-83079313D01*
X100242281Y-82996763D01*
X100377649Y-82885669D01*
X100405489Y-82851746D01*
X100819163Y-82438072D01*
X101180837Y-82438072D01*
X102142764Y-83400000D01*
X101262259Y-84280506D01*
X101228342Y-84308341D01*
X101200507Y-84342258D01*
X101200505Y-84342260D01*
X101117248Y-84443709D01*
X101034698Y-84598148D01*
X100983864Y-84765726D01*
X100966700Y-84940000D01*
X100971001Y-84983670D01*
X100971000Y-87368151D01*
X100945241Y-87385363D01*
X100745363Y-87585241D01*
X100588320Y-87820273D01*
X100480147Y-88081426D01*
X100425000Y-88358665D01*
X100425000Y-88641335D01*
X100480147Y-88918574D01*
X100588320Y-89179727D01*
X100745363Y-89414759D01*
X100945241Y-89614637D01*
X101180273Y-89771680D01*
X101441426Y-89879853D01*
X101718665Y-89935000D01*
X102001335Y-89935000D01*
X102234947Y-89888531D01*
X115209389Y-89888531D01*
X115251401Y-90178019D01*
X115349081Y-90453747D01*
X115422528Y-90591157D01*
X115671603Y-90668792D01*
X116520395Y-89820000D01*
X116879605Y-89820000D01*
X117728397Y-90668792D01*
X117970000Y-90593486D01*
X118211603Y-90668792D01*
X119060395Y-89820000D01*
X119419605Y-89820000D01*
X120268397Y-90668792D01*
X120517472Y-90591157D01*
X120643371Y-90327117D01*
X120715339Y-90043589D01*
X120730611Y-89751469D01*
X120688599Y-89461981D01*
X120590919Y-89186253D01*
X120517472Y-89048843D01*
X120268397Y-88971208D01*
X119419605Y-89820000D01*
X119060395Y-89820000D01*
X118211603Y-88971208D01*
X117970000Y-89046514D01*
X117728397Y-88971208D01*
X116879605Y-89820000D01*
X116520395Y-89820000D01*
X115671603Y-88971208D01*
X115422528Y-89048843D01*
X115296629Y-89312883D01*
X115224661Y-89596411D01*
X115209389Y-89888531D01*
X102234947Y-89888531D01*
X102278574Y-89879853D01*
X102539727Y-89771680D01*
X102774759Y-89614637D01*
X102974637Y-89414759D01*
X103131680Y-89179727D01*
X103239853Y-88918574D01*
X103295000Y-88641335D01*
X103295000Y-88358665D01*
X103285001Y-88308397D01*
X115851208Y-88308397D01*
X115926514Y-88550000D01*
X115851208Y-88791603D01*
X116700000Y-89640395D01*
X117548792Y-88791603D01*
X117473486Y-88550000D01*
X117548792Y-88308397D01*
X118391208Y-88308397D01*
X118466514Y-88550000D01*
X118391208Y-88791603D01*
X119240000Y-89640395D01*
X120088792Y-88791603D01*
X120013486Y-88550000D01*
X120088792Y-88308397D01*
X119240000Y-87459605D01*
X118391208Y-88308397D01*
X117548792Y-88308397D01*
X116700000Y-87459605D01*
X115851208Y-88308397D01*
X103285001Y-88308397D01*
X103239853Y-88081426D01*
X103131680Y-87820273D01*
X102974637Y-87585241D01*
X102774759Y-87385363D01*
X102749000Y-87368151D01*
X102749000Y-86658665D01*
X105765000Y-86658665D01*
X105765000Y-86941335D01*
X105820147Y-87218574D01*
X105928320Y-87479727D01*
X106085363Y-87714759D01*
X106285241Y-87914637D01*
X106520273Y-88071680D01*
X106781426Y-88179853D01*
X107058665Y-88235000D01*
X107341335Y-88235000D01*
X107618574Y-88179853D01*
X107879727Y-88071680D01*
X108114759Y-87914637D01*
X108314637Y-87714759D01*
X108471680Y-87479727D01*
X108579853Y-87218574D01*
X108635000Y-86941335D01*
X108635000Y-86698665D01*
X109265000Y-86698665D01*
X109265000Y-86981335D01*
X109320147Y-87258574D01*
X109428320Y-87519727D01*
X109585363Y-87754759D01*
X109785241Y-87954637D01*
X110020273Y-88111680D01*
X110281426Y-88219853D01*
X110558665Y-88275000D01*
X110841335Y-88275000D01*
X111118574Y-88219853D01*
X111379727Y-88111680D01*
X111614759Y-87954637D01*
X111814637Y-87754759D01*
X111971680Y-87519727D01*
X112042591Y-87348531D01*
X115209389Y-87348531D01*
X115251401Y-87638019D01*
X115349081Y-87913747D01*
X115422528Y-88051157D01*
X115671603Y-88128792D01*
X116520395Y-87280000D01*
X116879605Y-87280000D01*
X117728397Y-88128792D01*
X117970000Y-88053486D01*
X118211603Y-88128792D01*
X119060395Y-87280000D01*
X119419605Y-87280000D01*
X120268397Y-88128792D01*
X120517472Y-88051157D01*
X120643371Y-87787117D01*
X120715339Y-87503589D01*
X120730611Y-87211469D01*
X120688599Y-86921981D01*
X120590919Y-86646253D01*
X120517472Y-86508843D01*
X120268397Y-86431208D01*
X119419605Y-87280000D01*
X119060395Y-87280000D01*
X118211603Y-86431208D01*
X117970000Y-86506514D01*
X117728397Y-86431208D01*
X116879605Y-87280000D01*
X116520395Y-87280000D01*
X115671603Y-86431208D01*
X115422528Y-86508843D01*
X115296629Y-86772883D01*
X115224661Y-87056411D01*
X115209389Y-87348531D01*
X112042591Y-87348531D01*
X112079853Y-87258574D01*
X112135000Y-86981335D01*
X112135000Y-86698665D01*
X112128956Y-86668279D01*
X113028838Y-85768397D01*
X115851208Y-85768397D01*
X115926514Y-86010000D01*
X115851208Y-86251603D01*
X116700000Y-87100395D01*
X117548792Y-86251603D01*
X117473486Y-86010000D01*
X117548792Y-85768397D01*
X118391208Y-85768397D01*
X118466514Y-86010000D01*
X118391208Y-86251603D01*
X119240000Y-87100395D01*
X120088792Y-86251603D01*
X120013486Y-86010000D01*
X120088792Y-85768397D01*
X119240000Y-84919605D01*
X118391208Y-85768397D01*
X117548792Y-85768397D01*
X116700000Y-84919605D01*
X115851208Y-85768397D01*
X113028838Y-85768397D01*
X113988704Y-84808531D01*
X115209389Y-84808531D01*
X115251401Y-85098019D01*
X115349081Y-85373747D01*
X115422528Y-85511157D01*
X115671603Y-85588792D01*
X116520395Y-84740000D01*
X116879605Y-84740000D01*
X117728397Y-85588792D01*
X117970000Y-85513486D01*
X118211603Y-85588792D01*
X119060395Y-84740000D01*
X119419605Y-84740000D01*
X120268397Y-85588792D01*
X120517472Y-85511157D01*
X120643371Y-85247117D01*
X120715339Y-84963589D01*
X120730611Y-84671469D01*
X120688599Y-84381981D01*
X120590919Y-84106253D01*
X120517472Y-83968843D01*
X120268397Y-83891208D01*
X119419605Y-84740000D01*
X119060395Y-84740000D01*
X118211603Y-83891208D01*
X117970000Y-83966514D01*
X117728397Y-83891208D01*
X116879605Y-84740000D01*
X116520395Y-84740000D01*
X115671603Y-83891208D01*
X115422528Y-83968843D01*
X115296629Y-84232883D01*
X115224661Y-84516411D01*
X115209389Y-84808531D01*
X113988704Y-84808531D01*
X115425717Y-83371519D01*
X115472038Y-83427962D01*
X115606614Y-83538405D01*
X115760150Y-83620472D01*
X115869293Y-83653580D01*
X115851208Y-83711603D01*
X116700000Y-84560395D01*
X117548792Y-83711603D01*
X117530707Y-83653580D01*
X117639850Y-83620472D01*
X117793386Y-83538405D01*
X117927962Y-83427962D01*
X118038405Y-83293386D01*
X118106285Y-83166392D01*
X118293368Y-83353475D01*
X118466729Y-83469311D01*
X118391208Y-83711603D01*
X119240000Y-84560395D01*
X120088792Y-83711603D01*
X120013271Y-83469311D01*
X120186632Y-83353475D01*
X120393475Y-83146632D01*
X120555990Y-82903411D01*
X120667932Y-82633158D01*
X120725000Y-82346260D01*
X120725000Y-82053740D01*
X120667932Y-81766842D01*
X120555990Y-81496589D01*
X120393475Y-81253368D01*
X120186632Y-81046525D01*
X119943411Y-80884010D01*
X119673158Y-80772068D01*
X119386260Y-80715000D01*
X119093740Y-80715000D01*
X118806842Y-80772068D01*
X118536589Y-80884010D01*
X118293368Y-81046525D01*
X118106285Y-81233608D01*
X118038405Y-81106614D01*
X117927962Y-80972038D01*
X117793386Y-80861595D01*
X117639850Y-80779528D01*
X117473254Y-80728992D01*
X117300000Y-80711928D01*
X116100000Y-80711928D01*
X115926746Y-80728992D01*
X115760150Y-80779528D01*
X115606614Y-80861595D01*
X115472038Y-80972038D01*
X115361595Y-81106614D01*
X115279528Y-81260150D01*
X115263110Y-81314272D01*
X115182325Y-81322229D01*
X115165725Y-81323864D01*
X115106426Y-81341852D01*
X114998149Y-81374697D01*
X114843709Y-81457247D01*
X114708341Y-81568341D01*
X114680506Y-81602258D01*
X110871721Y-85411044D01*
X110841335Y-85405000D01*
X110558665Y-85405000D01*
X110281426Y-85460147D01*
X110020273Y-85568320D01*
X109785241Y-85725363D01*
X109585363Y-85925241D01*
X109428320Y-86160273D01*
X109320147Y-86421426D01*
X109265000Y-86698665D01*
X108635000Y-86698665D01*
X108635000Y-86658665D01*
X108579853Y-86381426D01*
X108471680Y-86120273D01*
X108314637Y-85885241D01*
X108114759Y-85685363D01*
X107879727Y-85528320D01*
X107618574Y-85420147D01*
X107341335Y-85365000D01*
X107058665Y-85365000D01*
X106781426Y-85420147D01*
X106520273Y-85528320D01*
X106285241Y-85685363D01*
X106085363Y-85885241D01*
X105928320Y-86120273D01*
X105820147Y-86381426D01*
X105765000Y-86658665D01*
X102749000Y-86658665D01*
X102749000Y-85308235D01*
X103768236Y-84289000D01*
X106068151Y-84289000D01*
X106085363Y-84314759D01*
X106285241Y-84514637D01*
X106520273Y-84671680D01*
X106781426Y-84779853D01*
X107058665Y-84835000D01*
X107341335Y-84835000D01*
X107618574Y-84779853D01*
X107879727Y-84671680D01*
X108114759Y-84514637D01*
X108314637Y-84314759D01*
X108471680Y-84079727D01*
X108579853Y-83818574D01*
X108635000Y-83541335D01*
X108635000Y-83258665D01*
X108628956Y-83228279D01*
X116257742Y-75599494D01*
X116291659Y-75571659D01*
X116402753Y-75436291D01*
X116485303Y-75281851D01*
X116516281Y-75179727D01*
X116536136Y-75114275D01*
X116537771Y-75097675D01*
X116549000Y-74983667D01*
X116549000Y-74983660D01*
X116553300Y-74940000D01*
X116549000Y-74896340D01*
X116549000Y-73231849D01*
X116574759Y-73214637D01*
X116774637Y-73014759D01*
X116931680Y-72779727D01*
X117039853Y-72518574D01*
X117095000Y-72241335D01*
X117095000Y-71958665D01*
X117039853Y-71681426D01*
X116931680Y-71420273D01*
X116774637Y-71185241D01*
X116574759Y-70985363D01*
X116339727Y-70828320D01*
X116119950Y-70737286D01*
X117511743Y-69345493D01*
X117545660Y-69317658D01*
X117656754Y-69182290D01*
X117739304Y-69027850D01*
X117771309Y-68922342D01*
X117790137Y-68860274D01*
X117791772Y-68843674D01*
X117803001Y-68729666D01*
X117803001Y-68729659D01*
X117807301Y-68685999D01*
X117803001Y-68642339D01*
X117803001Y-60897669D01*
X117807302Y-60854001D01*
X117790137Y-60679726D01*
X117774717Y-60628893D01*
X117739304Y-60512150D01*
X117656754Y-60357710D01*
X117545660Y-60222342D01*
X117511744Y-60194508D01*
X116988956Y-59671720D01*
X116995000Y-59641335D01*
X116995000Y-59358665D01*
X116939853Y-59081426D01*
X116831680Y-58820273D01*
X116674637Y-58585241D01*
X116474759Y-58385363D01*
X116239727Y-58228320D01*
X115978574Y-58120147D01*
X115701335Y-58065000D01*
X115418665Y-58065000D01*
X115141426Y-58120147D01*
X114880273Y-58228320D01*
X114645241Y-58385363D01*
X114445363Y-58585241D01*
X114288320Y-58820273D01*
X114180147Y-59081426D01*
X114125000Y-59358665D01*
X114125000Y-59641335D01*
X114180147Y-59918574D01*
X114288320Y-60179727D01*
X114445363Y-60414759D01*
X114645241Y-60614637D01*
X114880273Y-60771680D01*
X115141426Y-60879853D01*
X115418665Y-60935000D01*
X115701335Y-60935000D01*
X115731720Y-60928956D01*
X116025001Y-61222237D01*
X116025001Y-64409491D01*
X115801335Y-64365000D01*
X115518665Y-64365000D01*
X115241426Y-64420147D01*
X114980273Y-64528320D01*
X114745241Y-64685363D01*
X114545363Y-64885241D01*
X114528151Y-64911000D01*
X111843659Y-64911000D01*
X111799999Y-64906700D01*
X111756339Y-64911000D01*
X111756333Y-64911000D01*
X111658924Y-64920594D01*
X111625724Y-64923864D01*
X111524058Y-64954704D01*
X111458149Y-64974697D01*
X111303709Y-65057247D01*
X111168341Y-65168341D01*
X111140506Y-65202258D01*
X105671721Y-70671044D01*
X105641335Y-70665000D01*
X105358665Y-70665000D01*
X105081426Y-70720147D01*
X104820273Y-70828320D01*
X104585241Y-70985363D01*
X104385363Y-71185241D01*
X104368151Y-71211000D01*
X102787029Y-71211000D01*
X102814236Y-71121309D01*
X102841943Y-70840000D01*
X102814236Y-70558691D01*
X102732182Y-70288192D01*
X102598932Y-70038899D01*
X102419608Y-69820392D01*
X102201101Y-69641068D01*
X102073259Y-69572735D01*
X102302839Y-69422601D01*
X102504500Y-69224895D01*
X102663715Y-68991646D01*
X102774367Y-68731818D01*
X102791904Y-68649039D01*
X102669915Y-68427000D01*
X101127000Y-68427000D01*
X101127000Y-68447000D01*
X100873000Y-68447000D01*
X100873000Y-68427000D01*
X99330085Y-68427000D01*
X99208096Y-68649039D01*
X99225633Y-68731818D01*
X99336285Y-68991646D01*
X99495500Y-69224895D01*
X99697161Y-69422601D01*
X99926741Y-69572735D01*
X99798899Y-69641068D01*
X99580392Y-69820392D01*
X99401068Y-70038899D01*
X99267818Y-70288192D01*
X99185764Y-70558691D01*
X99158057Y-70840000D01*
X99185764Y-71121309D01*
X99267818Y-71391808D01*
X99401068Y-71641101D01*
X99580392Y-71859608D01*
X99798899Y-72038932D01*
X99931858Y-72110000D01*
X99798899Y-72181068D01*
X99580392Y-72360392D01*
X99401068Y-72578899D01*
X99267818Y-72828192D01*
X99185764Y-73098691D01*
X99158057Y-73380000D01*
X99185764Y-73661309D01*
X99267818Y-73931808D01*
X99401068Y-74181101D01*
X99580392Y-74399608D01*
X99798899Y-74578932D01*
X99926741Y-74647265D01*
X99697161Y-74797399D01*
X99495500Y-74995105D01*
X99336285Y-75228354D01*
X99225633Y-75488182D01*
X99208096Y-75570961D01*
X99330085Y-75793000D01*
X100873000Y-75793000D01*
X100873000Y-75773000D01*
X101127000Y-75773000D01*
X101127000Y-75793000D01*
X102669915Y-75793000D01*
X102791904Y-75570961D01*
X102774367Y-75488182D01*
X102663715Y-75228354D01*
X102504500Y-74995105D01*
X102302839Y-74797399D01*
X102073259Y-74647265D01*
X102201101Y-74578932D01*
X102419608Y-74399608D01*
X102598932Y-74181101D01*
X102732182Y-73931808D01*
X102814236Y-73661309D01*
X102841943Y-73380000D01*
X102814236Y-73098691D01*
X102780962Y-72989000D01*
X104368151Y-72989000D01*
X104385363Y-73014759D01*
X104585241Y-73214637D01*
X104820273Y-73371680D01*
X105081426Y-73479853D01*
X105358665Y-73535000D01*
X105641335Y-73535000D01*
X105918574Y-73479853D01*
X106179727Y-73371680D01*
X106414759Y-73214637D01*
X106614637Y-73014759D01*
X106771680Y-72779727D01*
X106879853Y-72518574D01*
X106935000Y-72241335D01*
X106935000Y-71958665D01*
X106928956Y-71928279D01*
X112168236Y-66689000D01*
X114528151Y-66689000D01*
X114545363Y-66714759D01*
X114745241Y-66914637D01*
X114980273Y-67071680D01*
X115241426Y-67179853D01*
X115518665Y-67235000D01*
X115801335Y-67235000D01*
X116025002Y-67190509D01*
X116025002Y-68317762D01*
X107371721Y-76971044D01*
X107341335Y-76965000D01*
X107058665Y-76965000D01*
X106781426Y-77020147D01*
X106520273Y-77128320D01*
X106285241Y-77285363D01*
X106085363Y-77485241D01*
X106028061Y-77571000D01*
X102526795Y-77571000D01*
X102419608Y-77440392D01*
X102201101Y-77261068D01*
X102073259Y-77192735D01*
X102302839Y-77042601D01*
X102504500Y-76844895D01*
X102663715Y-76611646D01*
X102774367Y-76351818D01*
X102791904Y-76269039D01*
X102669915Y-76047000D01*
X101127000Y-76047000D01*
X101127000Y-76067000D01*
X100873000Y-76067000D01*
X100873000Y-76047000D01*
X99330085Y-76047000D01*
X99208096Y-76269039D01*
X99225633Y-76351818D01*
X99336285Y-76611646D01*
X99495500Y-76844895D01*
X99697161Y-77042601D01*
X99926741Y-77192735D01*
X99798899Y-77261068D01*
X99580392Y-77440392D01*
X99401068Y-77658899D01*
X99267818Y-77908192D01*
X99185764Y-78178691D01*
X99158057Y-78460000D01*
X99185764Y-78741309D01*
X99267818Y-79011808D01*
X99401068Y-79261101D01*
X99580392Y-79479608D01*
X99693482Y-79572419D01*
X99675518Y-79574188D01*
X99555820Y-79610498D01*
X99445506Y-79669463D01*
X99348815Y-79748815D01*
X99269463Y-79845506D01*
X99210498Y-79955820D01*
X99174188Y-80075518D01*
X99161928Y-80200000D01*
X99161928Y-81365010D01*
X95168846Y-81365010D01*
X95194236Y-81281309D01*
X95221943Y-81000000D01*
X95194236Y-80718691D01*
X95130071Y-80507165D01*
X96339762Y-79297474D01*
X96373679Y-79269639D01*
X96484773Y-79134271D01*
X96567323Y-78979831D01*
X96618156Y-78812254D01*
X96631020Y-78681647D01*
X96631020Y-78681640D01*
X96635320Y-78637980D01*
X96631020Y-78594320D01*
X96631020Y-60585680D01*
X96635320Y-60542020D01*
X96631020Y-60498360D01*
X96631020Y-60498353D01*
X96618156Y-60367746D01*
X96615112Y-60357709D01*
X96567322Y-60200167D01*
X96545582Y-60159495D01*
X96484773Y-60045729D01*
X96373679Y-59910361D01*
X96339763Y-59882527D01*
X87306052Y-50848816D01*
X93565000Y-50848816D01*
X93565000Y-51151184D01*
X93623989Y-51447743D01*
X93739701Y-51727095D01*
X93907688Y-51978505D01*
X94121495Y-52192312D01*
X94372905Y-52360299D01*
X94652257Y-52476011D01*
X94948816Y-52535000D01*
X95251184Y-52535000D01*
X95356764Y-52513999D01*
X100111000Y-57268236D01*
X100111001Y-64408765D01*
X100048192Y-64427818D01*
X99798899Y-64561068D01*
X99580392Y-64740392D01*
X99401068Y-64958899D01*
X99267818Y-65208192D01*
X99185764Y-65478691D01*
X99158057Y-65760000D01*
X99185764Y-66041309D01*
X99267818Y-66311808D01*
X99401068Y-66561101D01*
X99580392Y-66779608D01*
X99798899Y-66958932D01*
X99926741Y-67027265D01*
X99697161Y-67177399D01*
X99495500Y-67375105D01*
X99336285Y-67608354D01*
X99225633Y-67868182D01*
X99208096Y-67950961D01*
X99330085Y-68173000D01*
X100873000Y-68173000D01*
X100873000Y-68153000D01*
X101127000Y-68153000D01*
X101127000Y-68173000D01*
X102669915Y-68173000D01*
X102791904Y-67950961D01*
X102774367Y-67868182D01*
X102663715Y-67608354D01*
X102504500Y-67375105D01*
X102302839Y-67177399D01*
X102073259Y-67027265D01*
X102201101Y-66958932D01*
X102419608Y-66779608D01*
X102526795Y-66649000D01*
X104341424Y-66649000D01*
X104385363Y-66714759D01*
X104585241Y-66914637D01*
X104820273Y-67071680D01*
X105081426Y-67179853D01*
X105358665Y-67235000D01*
X105641335Y-67235000D01*
X105918574Y-67179853D01*
X106179727Y-67071680D01*
X106414759Y-66914637D01*
X106614637Y-66714759D01*
X106771680Y-66479727D01*
X106879853Y-66218574D01*
X106935000Y-65941335D01*
X106935000Y-65658665D01*
X106879853Y-65381426D01*
X106771680Y-65120273D01*
X106614637Y-64885241D01*
X106414759Y-64685363D01*
X106179727Y-64528320D01*
X105918574Y-64420147D01*
X105641335Y-64365000D01*
X105358665Y-64365000D01*
X105081426Y-64420147D01*
X104820273Y-64528320D01*
X104585241Y-64685363D01*
X104399604Y-64871000D01*
X102526795Y-64871000D01*
X102419608Y-64740392D01*
X102201101Y-64561068D01*
X101951808Y-64427818D01*
X101889000Y-64408766D01*
X101889000Y-57246235D01*
X103971044Y-59328280D01*
X103965000Y-59358665D01*
X103965000Y-59641335D01*
X104020147Y-59918574D01*
X104128320Y-60179727D01*
X104285363Y-60414759D01*
X104485241Y-60614637D01*
X104720273Y-60771680D01*
X104981426Y-60879853D01*
X105258665Y-60935000D01*
X105541335Y-60935000D01*
X105818574Y-60879853D01*
X106079727Y-60771680D01*
X106314759Y-60614637D01*
X106514637Y-60414759D01*
X106671680Y-60179727D01*
X106779853Y-59918574D01*
X106835000Y-59641335D01*
X106835000Y-59358665D01*
X106779853Y-59081426D01*
X106671680Y-58820273D01*
X106514637Y-58585241D01*
X106314759Y-58385363D01*
X106079727Y-58228320D01*
X105818574Y-58120147D01*
X105541335Y-58065000D01*
X105258665Y-58065000D01*
X105228280Y-58071044D01*
X100989000Y-53831765D01*
X100989000Y-52538072D01*
X101000000Y-52538072D01*
X101124482Y-52525812D01*
X101244180Y-52489502D01*
X101354494Y-52430537D01*
X101451185Y-52351185D01*
X101530537Y-52254494D01*
X101589502Y-52144180D01*
X101625812Y-52024482D01*
X101638072Y-51900000D01*
X101638072Y-50100000D01*
X101625812Y-49975518D01*
X101589502Y-49855820D01*
X101530537Y-49745506D01*
X101451185Y-49648815D01*
X101354494Y-49569463D01*
X101244180Y-49510498D01*
X101124482Y-49474188D01*
X101000000Y-49461928D01*
X99200000Y-49461928D01*
X99075518Y-49474188D01*
X98955820Y-49510498D01*
X98845506Y-49569463D01*
X98748815Y-49648815D01*
X98669463Y-49745506D01*
X98616120Y-49845303D01*
X98578505Y-49807688D01*
X98327095Y-49639701D01*
X98047743Y-49523989D01*
X97751184Y-49465000D01*
X97448816Y-49465000D01*
X97152257Y-49523989D01*
X96872905Y-49639701D01*
X96621495Y-49807688D01*
X96407688Y-50021495D01*
X96350000Y-50107831D01*
X96292312Y-50021495D01*
X96078505Y-49807688D01*
X95827095Y-49639701D01*
X95547743Y-49523989D01*
X95251184Y-49465000D01*
X94948816Y-49465000D01*
X94652257Y-49523989D01*
X94372905Y-49639701D01*
X94121495Y-49807688D01*
X93907688Y-50021495D01*
X93739701Y-50272905D01*
X93623989Y-50552257D01*
X93565000Y-50848816D01*
X87306052Y-50848816D01*
X80238072Y-43780837D01*
X80238072Y-43142003D01*
X90805000Y-43142003D01*
X90805000Y-43857998D01*
X90833867Y-44151088D01*
X90947943Y-44527147D01*
X91133193Y-44873725D01*
X91382498Y-45177503D01*
X91686276Y-45426807D01*
X92032854Y-45612057D01*
X92408913Y-45726133D01*
X92800000Y-45764652D01*
X93191088Y-45726133D01*
X93567147Y-45612057D01*
X93913725Y-45426807D01*
X94217503Y-45177503D01*
X94466807Y-44873725D01*
X94652057Y-44527147D01*
X94766133Y-44151087D01*
X94795000Y-43857997D01*
X94795000Y-43142003D01*
X100405000Y-43142003D01*
X100405000Y-43857998D01*
X100433867Y-44151088D01*
X100547943Y-44527147D01*
X100733193Y-44873725D01*
X100982498Y-45177503D01*
X101286276Y-45426807D01*
X101632854Y-45612057D01*
X102008913Y-45726133D01*
X102400000Y-45764652D01*
X102791088Y-45726133D01*
X103167147Y-45612057D01*
X103513725Y-45426807D01*
X103817503Y-45177503D01*
X104066807Y-44873725D01*
X104252057Y-44527147D01*
X104366133Y-44151087D01*
X104395000Y-43857997D01*
X104395000Y-43142002D01*
X104366133Y-42848912D01*
X104252057Y-42472853D01*
X104066807Y-42126275D01*
X103817503Y-41822497D01*
X103513725Y-41573193D01*
X103167146Y-41387943D01*
X102791087Y-41273867D01*
X102400000Y-41235348D01*
X102008912Y-41273867D01*
X101632853Y-41387943D01*
X101286275Y-41573193D01*
X100982497Y-41822497D01*
X100733193Y-42126275D01*
X100547943Y-42472854D01*
X100433867Y-42848913D01*
X100405000Y-43142003D01*
X94795000Y-43142003D01*
X94795000Y-43142002D01*
X94766133Y-42848912D01*
X94652057Y-42472853D01*
X94466807Y-42126275D01*
X94217503Y-41822497D01*
X93913725Y-41573193D01*
X93567146Y-41387943D01*
X93191087Y-41273867D01*
X92800000Y-41235348D01*
X92408912Y-41273867D01*
X92032853Y-41387943D01*
X91686275Y-41573193D01*
X91382497Y-41822497D01*
X91133193Y-42126275D01*
X90947943Y-42472854D01*
X90833867Y-42848913D01*
X90805000Y-43142003D01*
X80238072Y-43142003D01*
X80238072Y-42600000D01*
X80225812Y-42475518D01*
X80189502Y-42355820D01*
X80130537Y-42245506D01*
X80051185Y-42148815D01*
X79954494Y-42069463D01*
X79844180Y-42010498D01*
X79724482Y-41974188D01*
X79600000Y-41961928D01*
X77800000Y-41961928D01*
X77675518Y-41974188D01*
X77555820Y-42010498D01*
X77445506Y-42069463D01*
X77348815Y-42148815D01*
X77269463Y-42245506D01*
X77210498Y-42355820D01*
X77204944Y-42374127D01*
X77138505Y-42307688D01*
X76887095Y-42139701D01*
X76607743Y-42023989D01*
X76311184Y-41965000D01*
X76008816Y-41965000D01*
X75712257Y-42023989D01*
X75432905Y-42139701D01*
X75181495Y-42307688D01*
X74967688Y-42521495D01*
X74799701Y-42772905D01*
X74683989Y-43052257D01*
X74625000Y-43348816D01*
X73660000Y-43348816D01*
X73660000Y-37660000D01*
X123340001Y-37660000D01*
X123340000Y-112340000D01*
%TA.AperFunction,Conductor*%
D25*
G36*
X123340000Y-112340000D02*
G01*
X101360364Y-112340000D01*
X101430537Y-112254494D01*
X101489502Y-112144180D01*
X101525812Y-112024482D01*
X101538072Y-111900000D01*
X101535000Y-111285750D01*
X101376250Y-111127000D01*
X100127000Y-111127000D01*
X100127000Y-111147000D01*
X99873000Y-111147000D01*
X99873000Y-111127000D01*
X99853000Y-111127000D01*
X99853000Y-110873000D01*
X99873000Y-110873000D01*
X99873000Y-109623750D01*
X100127000Y-109623750D01*
X100127000Y-110873000D01*
X101376250Y-110873000D01*
X101535000Y-110714250D01*
X101538072Y-110100000D01*
X101525812Y-109975518D01*
X101489502Y-109855820D01*
X101430537Y-109745506D01*
X101351185Y-109648815D01*
X101254494Y-109569463D01*
X101144180Y-109510498D01*
X101024482Y-109474188D01*
X100900000Y-109461928D01*
X100285750Y-109465000D01*
X100127000Y-109623750D01*
X99873000Y-109623750D01*
X99714250Y-109465000D01*
X99100000Y-109461928D01*
X98975518Y-109474188D01*
X98855820Y-109510498D01*
X98745506Y-109569463D01*
X98648815Y-109648815D01*
X98569463Y-109745506D01*
X98516120Y-109845303D01*
X98478505Y-109807688D01*
X98227095Y-109639701D01*
X97947743Y-109523989D01*
X97651184Y-109465000D01*
X97348816Y-109465000D01*
X97052257Y-109523989D01*
X96772905Y-109639701D01*
X96521495Y-109807688D01*
X96307688Y-110021495D01*
X96250000Y-110107831D01*
X96192312Y-110021495D01*
X95978505Y-109807688D01*
X95727095Y-109639701D01*
X95447743Y-109523989D01*
X95151184Y-109465000D01*
X94848816Y-109465000D01*
X94552257Y-109523989D01*
X94272905Y-109639701D01*
X94021495Y-109807688D01*
X93807688Y-110021495D01*
X93747883Y-110111000D01*
X90048236Y-110111000D01*
X83079239Y-103142003D01*
X90705000Y-103142003D01*
X90705000Y-103857998D01*
X90733867Y-104151088D01*
X90847943Y-104527147D01*
X91033193Y-104873725D01*
X91282498Y-105177503D01*
X91586276Y-105426807D01*
X91932854Y-105612057D01*
X92308913Y-105726133D01*
X92700000Y-105764652D01*
X93091088Y-105726133D01*
X93467147Y-105612057D01*
X93813725Y-105426807D01*
X94117503Y-105177503D01*
X94366807Y-104873725D01*
X94552057Y-104527147D01*
X94666133Y-104151087D01*
X94695000Y-103857997D01*
X94695000Y-103142003D01*
X100305000Y-103142003D01*
X100305000Y-103857998D01*
X100333867Y-104151088D01*
X100447943Y-104527147D01*
X100633193Y-104873725D01*
X100882498Y-105177503D01*
X101186276Y-105426807D01*
X101532854Y-105612057D01*
X101908913Y-105726133D01*
X102300000Y-105764652D01*
X102691088Y-105726133D01*
X103067147Y-105612057D01*
X103413725Y-105426807D01*
X103717503Y-105177503D01*
X103966807Y-104873725D01*
X104152057Y-104527147D01*
X104266133Y-104151087D01*
X104295000Y-103857997D01*
X104295000Y-103142002D01*
X104266133Y-102848912D01*
X104152057Y-102472853D01*
X103966807Y-102126275D01*
X103717503Y-101822497D01*
X103413725Y-101573193D01*
X103067146Y-101387943D01*
X102691087Y-101273867D01*
X102300000Y-101235348D01*
X101908912Y-101273867D01*
X101532853Y-101387943D01*
X101186275Y-101573193D01*
X100882497Y-101822497D01*
X100633193Y-102126275D01*
X100447943Y-102472854D01*
X100333867Y-102848913D01*
X100305000Y-103142003D01*
X94695000Y-103142003D01*
X94695000Y-103142002D01*
X94666133Y-102848912D01*
X94552057Y-102472853D01*
X94366807Y-102126275D01*
X94117503Y-101822497D01*
X93813725Y-101573193D01*
X93467146Y-101387943D01*
X93091087Y-101273867D01*
X92700000Y-101235348D01*
X92308912Y-101273867D01*
X91932853Y-101387943D01*
X91586275Y-101573193D01*
X91282497Y-101822497D01*
X91033193Y-102126275D01*
X90847943Y-102472854D01*
X90733867Y-102848913D01*
X90705000Y-103142003D01*
X83079239Y-103142003D01*
X81871926Y-101934691D01*
X81908224Y-101815032D01*
X81937282Y-101520000D01*
X81908224Y-101224968D01*
X81822166Y-100941275D01*
X81682417Y-100679821D01*
X81494345Y-100450655D01*
X81265179Y-100262583D01*
X81241638Y-100250000D01*
X81265179Y-100237417D01*
X81494345Y-100049345D01*
X81682417Y-99820179D01*
X81822166Y-99558725D01*
X81908224Y-99275032D01*
X81937282Y-98980000D01*
X81908224Y-98684968D01*
X81822166Y-98401275D01*
X81682417Y-98139821D01*
X81494345Y-97910655D01*
X81265179Y-97722583D01*
X81241638Y-97710000D01*
X81265179Y-97697417D01*
X81494345Y-97509345D01*
X81642351Y-97329000D01*
X82771765Y-97329000D01*
X86761928Y-101319164D01*
X86761928Y-102300000D01*
X86774188Y-102424482D01*
X86810498Y-102544180D01*
X86869463Y-102654494D01*
X86948815Y-102751185D01*
X87045506Y-102830537D01*
X87155820Y-102889502D01*
X87275518Y-102925812D01*
X87400000Y-102938072D01*
X89000000Y-102938072D01*
X89124482Y-102925812D01*
X89244180Y-102889502D01*
X89354494Y-102830537D01*
X89451185Y-102751185D01*
X89530537Y-102654494D01*
X89589502Y-102544180D01*
X89625812Y-102424482D01*
X89638072Y-102300000D01*
X89638072Y-100700000D01*
X89625812Y-100575518D01*
X89589502Y-100455820D01*
X89530537Y-100345506D01*
X89451185Y-100248815D01*
X89354494Y-100169463D01*
X89244180Y-100110498D01*
X89124482Y-100074188D01*
X89000000Y-100061928D01*
X88019164Y-100061928D01*
X83799499Y-95842264D01*
X83771659Y-95808341D01*
X83636291Y-95697247D01*
X83481851Y-95614697D01*
X83314274Y-95563864D01*
X83183667Y-95551000D01*
X83183660Y-95551000D01*
X83140000Y-95546700D01*
X83096340Y-95551000D01*
X81642351Y-95551000D01*
X81494345Y-95370655D01*
X81428886Y-95316934D01*
X81538387Y-95258405D01*
X81672962Y-95147962D01*
X81783405Y-95013387D01*
X81865472Y-94859851D01*
X81893031Y-94769000D01*
X87068151Y-94769000D01*
X87085363Y-94794759D01*
X87285241Y-94994637D01*
X87520273Y-95151680D01*
X87781426Y-95259853D01*
X88058665Y-95315000D01*
X88341335Y-95315000D01*
X88618574Y-95259853D01*
X88879727Y-95151680D01*
X89114759Y-94994637D01*
X89314637Y-94794759D01*
X89471680Y-94559727D01*
X89579853Y-94298574D01*
X89635000Y-94021335D01*
X89635000Y-93738665D01*
X89579853Y-93461426D01*
X89471680Y-93200273D01*
X89314637Y-92965241D01*
X89114759Y-92765363D01*
X88879727Y-92608320D01*
X88618574Y-92500147D01*
X88341335Y-92445000D01*
X88058665Y-92445000D01*
X87781426Y-92500147D01*
X87520273Y-92608320D01*
X87285241Y-92765363D01*
X87085363Y-92965241D01*
X87068151Y-92991000D01*
X81880897Y-92991000D01*
X81865472Y-92940149D01*
X81783405Y-92786613D01*
X81672962Y-92652038D01*
X81538387Y-92541595D01*
X81384851Y-92459528D01*
X81218255Y-92408992D01*
X81045001Y-92391928D01*
X79354999Y-92391928D01*
X79181745Y-92408992D01*
X79015149Y-92459528D01*
X78861613Y-92541595D01*
X78727038Y-92652038D01*
X78616595Y-92786613D01*
X78534528Y-92940149D01*
X78483992Y-93106745D01*
X78466928Y-93279999D01*
X78466928Y-94520001D01*
X78483992Y-94693255D01*
X78534528Y-94859851D01*
X78616595Y-95013387D01*
X78727038Y-95147962D01*
X78861613Y-95258405D01*
X78971114Y-95316934D01*
X78905655Y-95370655D01*
X78717583Y-95599821D01*
X78577834Y-95861275D01*
X78491776Y-96144968D01*
X78462718Y-96440000D01*
X78491776Y-96735032D01*
X78577834Y-97018725D01*
X78717583Y-97280179D01*
X78905655Y-97509345D01*
X79134821Y-97697417D01*
X79158362Y-97710000D01*
X79134821Y-97722583D01*
X78905655Y-97910655D01*
X78717583Y-98139821D01*
X78577834Y-98401275D01*
X78491776Y-98684968D01*
X78462718Y-98980000D01*
X78491776Y-99275032D01*
X78577834Y-99558725D01*
X78717583Y-99820179D01*
X78905655Y-100049345D01*
X79134821Y-100237417D01*
X79158362Y-100250000D01*
X79134821Y-100262583D01*
X78905655Y-100450655D01*
X78717583Y-100679821D01*
X78577834Y-100941275D01*
X78491776Y-101224968D01*
X78462718Y-101520000D01*
X78491776Y-101815032D01*
X78577834Y-102098725D01*
X78717583Y-102360179D01*
X78905655Y-102589345D01*
X79134821Y-102777417D01*
X79396275Y-102917166D01*
X79679968Y-103003224D01*
X79901064Y-103025000D01*
X80447765Y-103025000D01*
X89020506Y-111597742D01*
X89048341Y-111631659D01*
X89183709Y-111742753D01*
X89338149Y-111825303D01*
X89454892Y-111860716D01*
X89505725Y-111876136D01*
X89680000Y-111893301D01*
X89723668Y-111889000D01*
X93747883Y-111889000D01*
X93807688Y-111978505D01*
X94021495Y-112192312D01*
X94242525Y-112340000D01*
X73660000Y-112340000D01*
X73660000Y-109400031D01*
X78513698Y-109400031D01*
X78530449Y-109487591D01*
X78645526Y-109760809D01*
X78811694Y-110006326D01*
X79022567Y-110214708D01*
X79270042Y-110377947D01*
X79544608Y-110489769D01*
X79835714Y-110545877D01*
X80073000Y-110390376D01*
X80073000Y-109167000D01*
X80327000Y-109167000D01*
X80327000Y-110390376D01*
X80564286Y-110545877D01*
X80855392Y-110489769D01*
X81129958Y-110377947D01*
X81377433Y-110214708D01*
X81588306Y-110006326D01*
X81754474Y-109760809D01*
X81869551Y-109487591D01*
X81886302Y-109400031D01*
X81765246Y-109167000D01*
X80327000Y-109167000D01*
X80073000Y-109167000D01*
X78634754Y-109167000D01*
X78513698Y-109400031D01*
X73660000Y-109400031D01*
X73660000Y-105879999D01*
X78466928Y-105879999D01*
X78466928Y-107120001D01*
X78483992Y-107293255D01*
X78534528Y-107459851D01*
X78616595Y-107613387D01*
X78727038Y-107747962D01*
X78861613Y-107858405D01*
X78970590Y-107916655D01*
X78811694Y-108073674D01*
X78645526Y-108319191D01*
X78530449Y-108592409D01*
X78513698Y-108679969D01*
X78634754Y-108913000D01*
X80073000Y-108913000D01*
X80073000Y-108893000D01*
X80327000Y-108893000D01*
X80327000Y-108913000D01*
X81765246Y-108913000D01*
X81886302Y-108679969D01*
X81869551Y-108592409D01*
X81754474Y-108319191D01*
X81588306Y-108073674D01*
X81429410Y-107916655D01*
X81538387Y-107858405D01*
X81672962Y-107747962D01*
X81783405Y-107613387D01*
X81865472Y-107459851D01*
X81916008Y-107293255D01*
X81933072Y-107120001D01*
X81933072Y-105879999D01*
X81916008Y-105706745D01*
X81865472Y-105540149D01*
X81783405Y-105386613D01*
X81672962Y-105252038D01*
X81538387Y-105141595D01*
X81384851Y-105059528D01*
X81218255Y-105008992D01*
X81045001Y-104991928D01*
X79354999Y-104991928D01*
X79181745Y-105008992D01*
X79015149Y-105059528D01*
X78861613Y-105141595D01*
X78727038Y-105252038D01*
X78616595Y-105386613D01*
X78534528Y-105540149D01*
X78483992Y-105706745D01*
X78466928Y-105879999D01*
X73660000Y-105879999D01*
X73660000Y-86622223D01*
X79695000Y-86622223D01*
X79695000Y-86977777D01*
X79764365Y-87326499D01*
X79900429Y-87654988D01*
X80097965Y-87950621D01*
X80349379Y-88202035D01*
X80645012Y-88399571D01*
X80973501Y-88535635D01*
X81322223Y-88605000D01*
X81677777Y-88605000D01*
X82026499Y-88535635D01*
X82354988Y-88399571D01*
X82650621Y-88202035D01*
X82902035Y-87950621D01*
X83099571Y-87654988D01*
X83235635Y-87326499D01*
X83305000Y-86977777D01*
X83305000Y-86622223D01*
X83235635Y-86273501D01*
X83099571Y-85945012D01*
X82902035Y-85649379D01*
X82650621Y-85397965D01*
X82354988Y-85200429D01*
X82026499Y-85064365D01*
X81677777Y-84995000D01*
X81322223Y-84995000D01*
X80973501Y-85064365D01*
X80645012Y-85200429D01*
X80349379Y-85397965D01*
X80097965Y-85649379D01*
X79900429Y-85945012D01*
X79764365Y-86273501D01*
X79695000Y-86622223D01*
X73660000Y-86622223D01*
X73660000Y-43348816D01*
X74625000Y-43348816D01*
X74625000Y-43651184D01*
X74683989Y-43947743D01*
X74799701Y-44227095D01*
X74967688Y-44478505D01*
X75181495Y-44692312D01*
X75432905Y-44860299D01*
X75712257Y-44976011D01*
X76008816Y-45035000D01*
X76311184Y-45035000D01*
X76416764Y-45013999D01*
X94145011Y-62742247D01*
X94145011Y-64371154D01*
X94061309Y-64345764D01*
X93850492Y-64325000D01*
X92909508Y-64325000D01*
X92698691Y-64345764D01*
X92428192Y-64427818D01*
X92334913Y-64477677D01*
X90328956Y-62471721D01*
X90335000Y-62441335D01*
X90335000Y-62158665D01*
X90279853Y-61881426D01*
X90171680Y-61620273D01*
X90014637Y-61385241D01*
X89814759Y-61185363D01*
X89579727Y-61028320D01*
X89318574Y-60920147D01*
X89041335Y-60865000D01*
X88758665Y-60865000D01*
X88481426Y-60920147D01*
X88220273Y-61028320D01*
X87985241Y-61185363D01*
X87785363Y-61385241D01*
X87628320Y-61620273D01*
X87520147Y-61881426D01*
X87465000Y-62158665D01*
X87465000Y-62441335D01*
X87520147Y-62718574D01*
X87628320Y-62979727D01*
X87785363Y-63214759D01*
X87985241Y-63414637D01*
X88220273Y-63571680D01*
X88481426Y-63679853D01*
X88758665Y-63735000D01*
X89041335Y-63735000D01*
X89071721Y-63728956D01*
X91644877Y-66302113D01*
X91647818Y-66311808D01*
X91781068Y-66561101D01*
X91960392Y-66779608D01*
X92178899Y-66958932D01*
X92311858Y-67030000D01*
X92178899Y-67101068D01*
X91960392Y-67280392D01*
X91853205Y-67411000D01*
X90031849Y-67411000D01*
X90014637Y-67385241D01*
X89814759Y-67185363D01*
X89579727Y-67028320D01*
X89318574Y-66920147D01*
X89041335Y-66865000D01*
X88758665Y-66865000D01*
X88728279Y-66871044D01*
X83559499Y-61702264D01*
X83531659Y-61668341D01*
X83396291Y-61557247D01*
X83241851Y-61474697D01*
X83074274Y-61423864D01*
X82943667Y-61411000D01*
X82943660Y-61411000D01*
X82900000Y-61406700D01*
X82856340Y-61411000D01*
X79871849Y-61411000D01*
X79854637Y-61385241D01*
X79654759Y-61185363D01*
X79419727Y-61028320D01*
X79158574Y-60920147D01*
X78881335Y-60865000D01*
X78598665Y-60865000D01*
X78321426Y-60920147D01*
X78060273Y-61028320D01*
X77825241Y-61185363D01*
X77625363Y-61385241D01*
X77468320Y-61620273D01*
X77360147Y-61881426D01*
X77305000Y-62158665D01*
X77305000Y-62441335D01*
X77360147Y-62718574D01*
X77468320Y-62979727D01*
X77625363Y-63214759D01*
X77825241Y-63414637D01*
X78060273Y-63571680D01*
X78321426Y-63679853D01*
X78598665Y-63735000D01*
X78881335Y-63735000D01*
X79158574Y-63679853D01*
X79419727Y-63571680D01*
X79654759Y-63414637D01*
X79854637Y-63214759D01*
X79871849Y-63189000D01*
X82531765Y-63189000D01*
X87471044Y-68128279D01*
X87465000Y-68158665D01*
X87465000Y-68441335D01*
X87520147Y-68718574D01*
X87628320Y-68979727D01*
X87785363Y-69214759D01*
X87985241Y-69414637D01*
X88011000Y-69431849D01*
X88011001Y-73368151D01*
X87985241Y-73385363D01*
X87785363Y-73585241D01*
X87628320Y-73820273D01*
X87520147Y-74081426D01*
X87465000Y-74358665D01*
X87465000Y-74641335D01*
X87520147Y-74918574D01*
X87628320Y-75179727D01*
X87785363Y-75414759D01*
X87985241Y-75614637D01*
X88220273Y-75771680D01*
X88481426Y-75879853D01*
X88758665Y-75935000D01*
X89041335Y-75935000D01*
X89318574Y-75879853D01*
X89579727Y-75771680D01*
X89814759Y-75614637D01*
X90014637Y-75414759D01*
X90171680Y-75179727D01*
X90279853Y-74918574D01*
X90335000Y-74641335D01*
X90335000Y-74358665D01*
X90279853Y-74081426D01*
X90171680Y-73820273D01*
X90014637Y-73585241D01*
X89814759Y-73385363D01*
X89789000Y-73368151D01*
X89789000Y-69431849D01*
X89814759Y-69414637D01*
X90014637Y-69214759D01*
X90031849Y-69189000D01*
X91853205Y-69189000D01*
X91960392Y-69319608D01*
X92178899Y-69498932D01*
X92306741Y-69567265D01*
X92077161Y-69717399D01*
X91875500Y-69915105D01*
X91716285Y-70148354D01*
X91605633Y-70408182D01*
X91588096Y-70490961D01*
X91710085Y-70713000D01*
X93253000Y-70713000D01*
X93253000Y-70693000D01*
X93507000Y-70693000D01*
X93507000Y-70713000D01*
X93527000Y-70713000D01*
X93527000Y-70967000D01*
X93507000Y-70967000D01*
X93507000Y-70987000D01*
X93253000Y-70987000D01*
X93253000Y-70967000D01*
X91710085Y-70967000D01*
X91588096Y-71189039D01*
X91605633Y-71271818D01*
X91716285Y-71531646D01*
X91875500Y-71764895D01*
X92077161Y-71962601D01*
X92306741Y-72112735D01*
X92178899Y-72181068D01*
X91960392Y-72360392D01*
X91781068Y-72578899D01*
X91647818Y-72828192D01*
X91565764Y-73098691D01*
X91538057Y-73380000D01*
X91565764Y-73661309D01*
X91647818Y-73931808D01*
X91781068Y-74181101D01*
X91960392Y-74399608D01*
X92178899Y-74578932D01*
X92306741Y-74647265D01*
X92077161Y-74797399D01*
X91875500Y-74995105D01*
X91716285Y-75228354D01*
X91605633Y-75488182D01*
X91588096Y-75570961D01*
X91710085Y-75793000D01*
X93253000Y-75793000D01*
X93253000Y-75773000D01*
X93507000Y-75773000D01*
X93507000Y-75793000D01*
X93527000Y-75793000D01*
X93527000Y-76047000D01*
X93507000Y-76047000D01*
X93507000Y-76067000D01*
X93253000Y-76067000D01*
X93253000Y-76047000D01*
X91710085Y-76047000D01*
X91588096Y-76269039D01*
X91605633Y-76351818D01*
X91716285Y-76611646D01*
X91875500Y-76844895D01*
X92077161Y-77042601D01*
X92306741Y-77192735D01*
X92178899Y-77261068D01*
X91960392Y-77440392D01*
X91781068Y-77658899D01*
X91647818Y-77908192D01*
X91565764Y-78178691D01*
X91538057Y-78460000D01*
X91565764Y-78741309D01*
X91647818Y-79011808D01*
X91781068Y-79261101D01*
X91960392Y-79479608D01*
X92178899Y-79658932D01*
X92311858Y-79730000D01*
X92178899Y-79801068D01*
X91960392Y-79980392D01*
X91781068Y-80198899D01*
X91647818Y-80448192D01*
X91565764Y-80718691D01*
X91538057Y-81000000D01*
X91565764Y-81281309D01*
X91591154Y-81365010D01*
X86862246Y-81365010D01*
X80168956Y-74671721D01*
X80175000Y-74641335D01*
X80175000Y-74358665D01*
X80119853Y-74081426D01*
X80011680Y-73820273D01*
X79854637Y-73585241D01*
X79654759Y-73385363D01*
X79419727Y-73228320D01*
X79158574Y-73120147D01*
X78881335Y-73065000D01*
X78598665Y-73065000D01*
X78374999Y-73109491D01*
X78374999Y-69922236D01*
X78568280Y-69728956D01*
X78598665Y-69735000D01*
X78881335Y-69735000D01*
X79158574Y-69679853D01*
X79419727Y-69571680D01*
X79654759Y-69414637D01*
X79854637Y-69214759D01*
X80011680Y-68979727D01*
X80119853Y-68718574D01*
X80175000Y-68441335D01*
X80175000Y-68158665D01*
X80119853Y-67881426D01*
X80011680Y-67620273D01*
X79854637Y-67385241D01*
X79654759Y-67185363D01*
X79419727Y-67028320D01*
X79158574Y-66920147D01*
X78881335Y-66865000D01*
X78598665Y-66865000D01*
X78321426Y-66920147D01*
X78060273Y-67028320D01*
X77825241Y-67185363D01*
X77625363Y-67385241D01*
X77468320Y-67620273D01*
X77360147Y-67881426D01*
X77305000Y-68158665D01*
X77305000Y-68441335D01*
X77311044Y-68471720D01*
X76888263Y-68894502D01*
X76854340Y-68922342D01*
X76743246Y-69057711D01*
X76660696Y-69212151D01*
X76609863Y-69379728D01*
X76596999Y-69510335D01*
X76596999Y-69510341D01*
X76592699Y-69554001D01*
X76596999Y-69597661D01*
X76597000Y-75242329D01*
X76592699Y-75285999D01*
X76609863Y-75460273D01*
X76660697Y-75627851D01*
X76690043Y-75682753D01*
X76743247Y-75782290D01*
X76854341Y-75917658D01*
X76888258Y-75945493D01*
X81001550Y-80058786D01*
X80973501Y-80064365D01*
X80645012Y-80200429D01*
X80349379Y-80397965D01*
X80097965Y-80649379D01*
X79900429Y-80945012D01*
X79764365Y-81273501D01*
X79695000Y-81622223D01*
X79695000Y-81977777D01*
X79764365Y-82326499D01*
X79900429Y-82654988D01*
X80097965Y-82950621D01*
X80349379Y-83202035D01*
X80645012Y-83399571D01*
X80973501Y-83535635D01*
X81322223Y-83605000D01*
X81677777Y-83605000D01*
X81986380Y-83543615D01*
X91961928Y-93519163D01*
X91961928Y-94600000D01*
X91974188Y-94724482D01*
X92010498Y-94844180D01*
X92069463Y-94954494D01*
X92148815Y-95051185D01*
X92245506Y-95130537D01*
X92355820Y-95189502D01*
X92475518Y-95225812D01*
X92600000Y-95238072D01*
X94200000Y-95238072D01*
X94324482Y-95225812D01*
X94444180Y-95189502D01*
X94554494Y-95130537D01*
X94651185Y-95051185D01*
X94730537Y-94954494D01*
X94789502Y-94844180D01*
X94805117Y-94792702D01*
X95086903Y-94792702D01*
X95158486Y-95036671D01*
X95413996Y-95157571D01*
X95688184Y-95226300D01*
X95970512Y-95240217D01*
X96250130Y-95198787D01*
X96516292Y-95103603D01*
X96641514Y-95036671D01*
X96713097Y-94792702D01*
X95900000Y-93979605D01*
X95086903Y-94792702D01*
X94805117Y-94792702D01*
X94825812Y-94724482D01*
X94838072Y-94600000D01*
X94838072Y-94592785D01*
X94907298Y-94613097D01*
X95720395Y-93800000D01*
X96079605Y-93800000D01*
X96892702Y-94613097D01*
X97136671Y-94541514D01*
X97156314Y-94500000D01*
X99461928Y-94500000D01*
X99474188Y-94624482D01*
X99510498Y-94744180D01*
X99569463Y-94854494D01*
X99648815Y-94951185D01*
X99745506Y-95030537D01*
X99855820Y-95089502D01*
X99975518Y-95125812D01*
X100100000Y-95138072D01*
X100614250Y-95135000D01*
X100773000Y-94976250D01*
X100773000Y-93827000D01*
X99623750Y-93827000D01*
X99465000Y-93985750D01*
X99461928Y-94500000D01*
X97156314Y-94500000D01*
X97257571Y-94286004D01*
X97326300Y-94011816D01*
X97340217Y-93729488D01*
X97298787Y-93449870D01*
X97203603Y-93183708D01*
X97136671Y-93058486D01*
X96892702Y-92986903D01*
X96079605Y-93800000D01*
X95720395Y-93800000D01*
X95706253Y-93785858D01*
X95885858Y-93606253D01*
X95900000Y-93620395D01*
X96620395Y-92900000D01*
X99461928Y-92900000D01*
X99465000Y-93414250D01*
X99623750Y-93573000D01*
X100773000Y-93573000D01*
X100773000Y-92423750D01*
X101027000Y-92423750D01*
X101027000Y-93573000D01*
X101047000Y-93573000D01*
X101047000Y-93827000D01*
X101027000Y-93827000D01*
X101027000Y-94976250D01*
X101185750Y-95135000D01*
X101700000Y-95138072D01*
X101824482Y-95125812D01*
X101944180Y-95089502D01*
X102054494Y-95030537D01*
X102151185Y-94951185D01*
X102230537Y-94854494D01*
X102289502Y-94744180D01*
X102318661Y-94648057D01*
X102485241Y-94814637D01*
X102511000Y-94831849D01*
X102511000Y-94972261D01*
X102506700Y-95015922D01*
X102511000Y-95059582D01*
X102511000Y-95059588D01*
X102523864Y-95190195D01*
X102574697Y-95357772D01*
X102657247Y-95512212D01*
X102768341Y-95647581D01*
X102802264Y-95675421D01*
X105938585Y-98811743D01*
X105966420Y-98845660D01*
X106101788Y-98956754D01*
X106256228Y-99039304D01*
X106372971Y-99074717D01*
X106423804Y-99090137D01*
X106440404Y-99091772D01*
X106554412Y-99103001D01*
X106554419Y-99103001D01*
X106598079Y-99107301D01*
X106641739Y-99103001D01*
X109442339Y-99103001D01*
X109485999Y-99107301D01*
X109529659Y-99103001D01*
X109529666Y-99103001D01*
X109660273Y-99090137D01*
X109827850Y-99039304D01*
X109982290Y-98956754D01*
X110117658Y-98845660D01*
X110145498Y-98811737D01*
X110528279Y-98428956D01*
X110558665Y-98435000D01*
X110841335Y-98435000D01*
X111118574Y-98379853D01*
X111379727Y-98271680D01*
X111614759Y-98114637D01*
X111814637Y-97914759D01*
X111971680Y-97679727D01*
X112079853Y-97418574D01*
X112135000Y-97141335D01*
X112135000Y-96858665D01*
X112079853Y-96581426D01*
X111971680Y-96320273D01*
X111814637Y-96085241D01*
X111614759Y-95885363D01*
X111379727Y-95728320D01*
X111118574Y-95620147D01*
X110841335Y-95565000D01*
X110558665Y-95565000D01*
X110281426Y-95620147D01*
X110020273Y-95728320D01*
X109785241Y-95885363D01*
X109585363Y-96085241D01*
X109428320Y-96320273D01*
X109320147Y-96581426D01*
X109265000Y-96858665D01*
X109265000Y-97141335D01*
X109271044Y-97171721D01*
X109117764Y-97325001D01*
X108590509Y-97325001D01*
X108635000Y-97101335D01*
X108635000Y-96818665D01*
X108628956Y-96788279D01*
X112168235Y-93249000D01*
X115508017Y-93249000D01*
X115546525Y-93306632D01*
X115753368Y-93513475D01*
X115996589Y-93675990D01*
X116266842Y-93787932D01*
X116553740Y-93845000D01*
X116846260Y-93845000D01*
X117133158Y-93787932D01*
X117403411Y-93675990D01*
X117646632Y-93513475D01*
X117853475Y-93306632D01*
X117891983Y-93249000D01*
X118048017Y-93249000D01*
X118086525Y-93306632D01*
X118293368Y-93513475D01*
X118536589Y-93675990D01*
X118806842Y-93787932D01*
X119093740Y-93845000D01*
X119386260Y-93845000D01*
X119673158Y-93787932D01*
X119943411Y-93675990D01*
X120186632Y-93513475D01*
X120393475Y-93306632D01*
X120555990Y-93063411D01*
X120667932Y-92793158D01*
X120725000Y-92506260D01*
X120725000Y-92213740D01*
X120667932Y-91926842D01*
X120555990Y-91656589D01*
X120393475Y-91413368D01*
X120186632Y-91206525D01*
X120013271Y-91090689D01*
X120088792Y-90848397D01*
X119240000Y-89999605D01*
X118391208Y-90848397D01*
X118466729Y-91090689D01*
X118293368Y-91206525D01*
X118086525Y-91413368D01*
X118048017Y-91471000D01*
X117891983Y-91471000D01*
X117853475Y-91413368D01*
X117646632Y-91206525D01*
X117473271Y-91090689D01*
X117548792Y-90848397D01*
X116700000Y-89999605D01*
X115851208Y-90848397D01*
X115926729Y-91090689D01*
X115753368Y-91206525D01*
X115546525Y-91413368D01*
X115508017Y-91471000D01*
X111843659Y-91471000D01*
X111799999Y-91466700D01*
X111756339Y-91471000D01*
X111756333Y-91471000D01*
X111658924Y-91480594D01*
X111625724Y-91483864D01*
X111524058Y-91514704D01*
X111458149Y-91534697D01*
X111303709Y-91617247D01*
X111168341Y-91728341D01*
X111140501Y-91762264D01*
X107371721Y-95531044D01*
X107341335Y-95525000D01*
X107058665Y-95525000D01*
X106781426Y-95580147D01*
X106520273Y-95688320D01*
X106285241Y-95845363D01*
X106085363Y-96045241D01*
X105928320Y-96280273D01*
X105926348Y-96285034D01*
X104385355Y-94744041D01*
X104514637Y-94614759D01*
X104671680Y-94379727D01*
X104779853Y-94118574D01*
X104835000Y-93841335D01*
X104835000Y-93558665D01*
X104779853Y-93281426D01*
X104671680Y-93020273D01*
X104514637Y-92785241D01*
X104314759Y-92585363D01*
X104079727Y-92428320D01*
X103818574Y-92320147D01*
X103541335Y-92265000D01*
X103258665Y-92265000D01*
X102981426Y-92320147D01*
X102720273Y-92428320D01*
X102485241Y-92585363D01*
X102318661Y-92751943D01*
X102289502Y-92655820D01*
X102230537Y-92545506D01*
X102151185Y-92448815D01*
X102054494Y-92369463D01*
X101944180Y-92310498D01*
X101824482Y-92274188D01*
X101700000Y-92261928D01*
X101185750Y-92265000D01*
X101027000Y-92423750D01*
X100773000Y-92423750D01*
X100614250Y-92265000D01*
X100100000Y-92261928D01*
X99975518Y-92274188D01*
X99855820Y-92310498D01*
X99745506Y-92369463D01*
X99648815Y-92448815D01*
X99569463Y-92545506D01*
X99510498Y-92655820D01*
X99474188Y-92775518D01*
X99461928Y-92900000D01*
X96620395Y-92900000D01*
X96713097Y-92807298D01*
X96641514Y-92563329D01*
X96386004Y-92442429D01*
X96111816Y-92373700D01*
X96084864Y-92372371D01*
X99097742Y-89359494D01*
X99131659Y-89331659D01*
X99242753Y-89196291D01*
X99325303Y-89041851D01*
X99362698Y-88918574D01*
X99376136Y-88874276D01*
X99379406Y-88841076D01*
X99389000Y-88743667D01*
X99389000Y-88743661D01*
X99393300Y-88700001D01*
X99389000Y-88656341D01*
X99389000Y-86531849D01*
X99414759Y-86514637D01*
X99614637Y-86314759D01*
X99771680Y-86079727D01*
X99879853Y-85818574D01*
X99935000Y-85541335D01*
X99935000Y-85258665D01*
X99879853Y-84981426D01*
X99771680Y-84720273D01*
X99614637Y-84485241D01*
X99414759Y-84285363D01*
X99179727Y-84128320D01*
X98918574Y-84020147D01*
X98641335Y-83965000D01*
X98358665Y-83965000D01*
X98081426Y-84020147D01*
X97820273Y-84128320D01*
X97585241Y-84285363D01*
X97385363Y-84485241D01*
X97250000Y-84687827D01*
X97114637Y-84485241D01*
X96914759Y-84285363D01*
X96679727Y-84128320D01*
X96418574Y-84020147D01*
X96141335Y-83965000D01*
X95858665Y-83965000D01*
X95581426Y-84020147D01*
X95320273Y-84128320D01*
X95085241Y-84285363D01*
X94885363Y-84485241D01*
X94728320Y-84720273D01*
X94620147Y-84981426D01*
X94565000Y-85258665D01*
X94565000Y-85541335D01*
X94620147Y-85818574D01*
X94728320Y-86079727D01*
X94885363Y-86314759D01*
X95085241Y-86514637D01*
X95320273Y-86671680D01*
X95581426Y-86779853D01*
X95858665Y-86835000D01*
X96141335Y-86835000D01*
X96418574Y-86779853D01*
X96679727Y-86671680D01*
X96914759Y-86514637D01*
X97114637Y-86314759D01*
X97250000Y-86112173D01*
X97385363Y-86314759D01*
X97585241Y-86514637D01*
X97611000Y-86531849D01*
X97611001Y-88331763D01*
X93580837Y-92361928D01*
X93319163Y-92361928D01*
X87757235Y-86800000D01*
X89106700Y-86800000D01*
X89123864Y-86974274D01*
X89174698Y-87141852D01*
X89257248Y-87296291D01*
X89330348Y-87385363D01*
X89368342Y-87431659D01*
X89402259Y-87459494D01*
X90271044Y-88328280D01*
X90265000Y-88358665D01*
X90265000Y-88641335D01*
X90320147Y-88918574D01*
X90428320Y-89179727D01*
X90585363Y-89414759D01*
X90785241Y-89614637D01*
X91020273Y-89771680D01*
X91281426Y-89879853D01*
X91558665Y-89935000D01*
X91841335Y-89935000D01*
X92118574Y-89879853D01*
X92379727Y-89771680D01*
X92614759Y-89614637D01*
X92814637Y-89414759D01*
X92971680Y-89179727D01*
X93079853Y-88918574D01*
X93135000Y-88641335D01*
X93135000Y-88358665D01*
X93079853Y-88081426D01*
X92971680Y-87820273D01*
X92814637Y-87585241D01*
X92614759Y-87385363D01*
X92379727Y-87228320D01*
X92118574Y-87120147D01*
X91841335Y-87065000D01*
X91558665Y-87065000D01*
X91528280Y-87071044D01*
X90889000Y-86431765D01*
X90889000Y-84212441D01*
X90880437Y-84169391D01*
X90876136Y-84125726D01*
X90863399Y-84083737D01*
X90854836Y-84040688D01*
X90838041Y-84000143D01*
X90825303Y-83958149D01*
X90804614Y-83919443D01*
X90787821Y-83878901D01*
X90763442Y-83842415D01*
X90742753Y-83803709D01*
X90714912Y-83769785D01*
X90690531Y-83733296D01*
X90659499Y-83702264D01*
X90631659Y-83668341D01*
X90597737Y-83640502D01*
X90566704Y-83609469D01*
X90530211Y-83585085D01*
X90496290Y-83557247D01*
X90457589Y-83536561D01*
X90421099Y-83512179D01*
X90380552Y-83495384D01*
X90341850Y-83474697D01*
X90299860Y-83461960D01*
X90259312Y-83445164D01*
X90216260Y-83436600D01*
X90174273Y-83423864D01*
X90130610Y-83419563D01*
X90087559Y-83411000D01*
X90043667Y-83411000D01*
X90000000Y-83406699D01*
X89956333Y-83411000D01*
X89912441Y-83411000D01*
X89869391Y-83419563D01*
X89825726Y-83423864D01*
X89783737Y-83436601D01*
X89740688Y-83445164D01*
X89700143Y-83461959D01*
X89658149Y-83474697D01*
X89619443Y-83495386D01*
X89578901Y-83512179D01*
X89542415Y-83536558D01*
X89503709Y-83557247D01*
X89469785Y-83585088D01*
X89433296Y-83609469D01*
X89402264Y-83640501D01*
X89368341Y-83668341D01*
X89340502Y-83702263D01*
X89309469Y-83733296D01*
X89285085Y-83769789D01*
X89257247Y-83803710D01*
X89236561Y-83842411D01*
X89212179Y-83878901D01*
X89195384Y-83919448D01*
X89174697Y-83958150D01*
X89161960Y-84000140D01*
X89145164Y-84040688D01*
X89136600Y-84083740D01*
X89123864Y-84125727D01*
X89119563Y-84169390D01*
X89111000Y-84212441D01*
X89111000Y-84256334D01*
X89111001Y-86756330D01*
X89106700Y-86800000D01*
X87757235Y-86800000D01*
X86998449Y-86041214D01*
X87026499Y-86035635D01*
X87354988Y-85899571D01*
X87650621Y-85702035D01*
X87902035Y-85450621D01*
X88099571Y-85154988D01*
X88235635Y-84826499D01*
X88305000Y-84477777D01*
X88305000Y-84122223D01*
X88235635Y-83773501D01*
X88099571Y-83445012D01*
X87902035Y-83149379D01*
X87895666Y-83143010D01*
X99702330Y-83143010D01*
X99745990Y-83147310D01*
X99789650Y-83143010D01*
X99789657Y-83143010D01*
X99920264Y-83130146D01*
X100087841Y-83079313D01*
X100242281Y-82996763D01*
X100377649Y-82885669D01*
X100405489Y-82851746D01*
X100819163Y-82438072D01*
X101180837Y-82438072D01*
X102142764Y-83400000D01*
X101262259Y-84280506D01*
X101228342Y-84308341D01*
X101200507Y-84342258D01*
X101200505Y-84342260D01*
X101117248Y-84443709D01*
X101034698Y-84598148D01*
X100983864Y-84765726D01*
X100966700Y-84940000D01*
X100971001Y-84983670D01*
X100971000Y-87368151D01*
X100945241Y-87385363D01*
X100745363Y-87585241D01*
X100588320Y-87820273D01*
X100480147Y-88081426D01*
X100425000Y-88358665D01*
X100425000Y-88641335D01*
X100480147Y-88918574D01*
X100588320Y-89179727D01*
X100745363Y-89414759D01*
X100945241Y-89614637D01*
X101180273Y-89771680D01*
X101441426Y-89879853D01*
X101718665Y-89935000D01*
X102001335Y-89935000D01*
X102234947Y-89888531D01*
X115209389Y-89888531D01*
X115251401Y-90178019D01*
X115349081Y-90453747D01*
X115422528Y-90591157D01*
X115671603Y-90668792D01*
X116520395Y-89820000D01*
X116879605Y-89820000D01*
X117728397Y-90668792D01*
X117970000Y-90593486D01*
X118211603Y-90668792D01*
X119060395Y-89820000D01*
X119419605Y-89820000D01*
X120268397Y-90668792D01*
X120517472Y-90591157D01*
X120643371Y-90327117D01*
X120715339Y-90043589D01*
X120730611Y-89751469D01*
X120688599Y-89461981D01*
X120590919Y-89186253D01*
X120517472Y-89048843D01*
X120268397Y-88971208D01*
X119419605Y-89820000D01*
X119060395Y-89820000D01*
X118211603Y-88971208D01*
X117970000Y-89046514D01*
X117728397Y-88971208D01*
X116879605Y-89820000D01*
X116520395Y-89820000D01*
X115671603Y-88971208D01*
X115422528Y-89048843D01*
X115296629Y-89312883D01*
X115224661Y-89596411D01*
X115209389Y-89888531D01*
X102234947Y-89888531D01*
X102278574Y-89879853D01*
X102539727Y-89771680D01*
X102774759Y-89614637D01*
X102974637Y-89414759D01*
X103131680Y-89179727D01*
X103239853Y-88918574D01*
X103295000Y-88641335D01*
X103295000Y-88358665D01*
X103285001Y-88308397D01*
X115851208Y-88308397D01*
X115926514Y-88550000D01*
X115851208Y-88791603D01*
X116700000Y-89640395D01*
X117548792Y-88791603D01*
X117473486Y-88550000D01*
X117548792Y-88308397D01*
X118391208Y-88308397D01*
X118466514Y-88550000D01*
X118391208Y-88791603D01*
X119240000Y-89640395D01*
X120088792Y-88791603D01*
X120013486Y-88550000D01*
X120088792Y-88308397D01*
X119240000Y-87459605D01*
X118391208Y-88308397D01*
X117548792Y-88308397D01*
X116700000Y-87459605D01*
X115851208Y-88308397D01*
X103285001Y-88308397D01*
X103239853Y-88081426D01*
X103131680Y-87820273D01*
X102974637Y-87585241D01*
X102774759Y-87385363D01*
X102749000Y-87368151D01*
X102749000Y-86658665D01*
X105765000Y-86658665D01*
X105765000Y-86941335D01*
X105820147Y-87218574D01*
X105928320Y-87479727D01*
X106085363Y-87714759D01*
X106285241Y-87914637D01*
X106520273Y-88071680D01*
X106781426Y-88179853D01*
X107058665Y-88235000D01*
X107341335Y-88235000D01*
X107618574Y-88179853D01*
X107879727Y-88071680D01*
X108114759Y-87914637D01*
X108314637Y-87714759D01*
X108471680Y-87479727D01*
X108579853Y-87218574D01*
X108635000Y-86941335D01*
X108635000Y-86698665D01*
X109265000Y-86698665D01*
X109265000Y-86981335D01*
X109320147Y-87258574D01*
X109428320Y-87519727D01*
X109585363Y-87754759D01*
X109785241Y-87954637D01*
X110020273Y-88111680D01*
X110281426Y-88219853D01*
X110558665Y-88275000D01*
X110841335Y-88275000D01*
X111118574Y-88219853D01*
X111379727Y-88111680D01*
X111614759Y-87954637D01*
X111814637Y-87754759D01*
X111971680Y-87519727D01*
X112042591Y-87348531D01*
X115209389Y-87348531D01*
X115251401Y-87638019D01*
X115349081Y-87913747D01*
X115422528Y-88051157D01*
X115671603Y-88128792D01*
X116520395Y-87280000D01*
X116879605Y-87280000D01*
X117728397Y-88128792D01*
X117970000Y-88053486D01*
X118211603Y-88128792D01*
X119060395Y-87280000D01*
X119419605Y-87280000D01*
X120268397Y-88128792D01*
X120517472Y-88051157D01*
X120643371Y-87787117D01*
X120715339Y-87503589D01*
X120730611Y-87211469D01*
X120688599Y-86921981D01*
X120590919Y-86646253D01*
X120517472Y-86508843D01*
X120268397Y-86431208D01*
X119419605Y-87280000D01*
X119060395Y-87280000D01*
X118211603Y-86431208D01*
X117970000Y-86506514D01*
X117728397Y-86431208D01*
X116879605Y-87280000D01*
X116520395Y-87280000D01*
X115671603Y-86431208D01*
X115422528Y-86508843D01*
X115296629Y-86772883D01*
X115224661Y-87056411D01*
X115209389Y-87348531D01*
X112042591Y-87348531D01*
X112079853Y-87258574D01*
X112135000Y-86981335D01*
X112135000Y-86698665D01*
X112128956Y-86668279D01*
X113028838Y-85768397D01*
X115851208Y-85768397D01*
X115926514Y-86010000D01*
X115851208Y-86251603D01*
X116700000Y-87100395D01*
X117548792Y-86251603D01*
X117473486Y-86010000D01*
X117548792Y-85768397D01*
X118391208Y-85768397D01*
X118466514Y-86010000D01*
X118391208Y-86251603D01*
X119240000Y-87100395D01*
X120088792Y-86251603D01*
X120013486Y-86010000D01*
X120088792Y-85768397D01*
X119240000Y-84919605D01*
X118391208Y-85768397D01*
X117548792Y-85768397D01*
X116700000Y-84919605D01*
X115851208Y-85768397D01*
X113028838Y-85768397D01*
X113988704Y-84808531D01*
X115209389Y-84808531D01*
X115251401Y-85098019D01*
X115349081Y-85373747D01*
X115422528Y-85511157D01*
X115671603Y-85588792D01*
X116520395Y-84740000D01*
X116879605Y-84740000D01*
X117728397Y-85588792D01*
X117970000Y-85513486D01*
X118211603Y-85588792D01*
X119060395Y-84740000D01*
X119419605Y-84740000D01*
X120268397Y-85588792D01*
X120517472Y-85511157D01*
X120643371Y-85247117D01*
X120715339Y-84963589D01*
X120730611Y-84671469D01*
X120688599Y-84381981D01*
X120590919Y-84106253D01*
X120517472Y-83968843D01*
X120268397Y-83891208D01*
X119419605Y-84740000D01*
X119060395Y-84740000D01*
X118211603Y-83891208D01*
X117970000Y-83966514D01*
X117728397Y-83891208D01*
X116879605Y-84740000D01*
X116520395Y-84740000D01*
X115671603Y-83891208D01*
X115422528Y-83968843D01*
X115296629Y-84232883D01*
X115224661Y-84516411D01*
X115209389Y-84808531D01*
X113988704Y-84808531D01*
X115425717Y-83371519D01*
X115472038Y-83427962D01*
X115606614Y-83538405D01*
X115760150Y-83620472D01*
X115869293Y-83653580D01*
X115851208Y-83711603D01*
X116700000Y-84560395D01*
X117548792Y-83711603D01*
X117530707Y-83653580D01*
X117639850Y-83620472D01*
X117793386Y-83538405D01*
X117927962Y-83427962D01*
X118038405Y-83293386D01*
X118106285Y-83166392D01*
X118293368Y-83353475D01*
X118466729Y-83469311D01*
X118391208Y-83711603D01*
X119240000Y-84560395D01*
X120088792Y-83711603D01*
X120013271Y-83469311D01*
X120186632Y-83353475D01*
X120393475Y-83146632D01*
X120555990Y-82903411D01*
X120667932Y-82633158D01*
X120725000Y-82346260D01*
X120725000Y-82053740D01*
X120667932Y-81766842D01*
X120555990Y-81496589D01*
X120393475Y-81253368D01*
X120186632Y-81046525D01*
X119943411Y-80884010D01*
X119673158Y-80772068D01*
X119386260Y-80715000D01*
X119093740Y-80715000D01*
X118806842Y-80772068D01*
X118536589Y-80884010D01*
X118293368Y-81046525D01*
X118106285Y-81233608D01*
X118038405Y-81106614D01*
X117927962Y-80972038D01*
X117793386Y-80861595D01*
X117639850Y-80779528D01*
X117473254Y-80728992D01*
X117300000Y-80711928D01*
X116100000Y-80711928D01*
X115926746Y-80728992D01*
X115760150Y-80779528D01*
X115606614Y-80861595D01*
X115472038Y-80972038D01*
X115361595Y-81106614D01*
X115279528Y-81260150D01*
X115263110Y-81314272D01*
X115182325Y-81322229D01*
X115165725Y-81323864D01*
X115106426Y-81341852D01*
X114998149Y-81374697D01*
X114843709Y-81457247D01*
X114708341Y-81568341D01*
X114680506Y-81602258D01*
X110871721Y-85411044D01*
X110841335Y-85405000D01*
X110558665Y-85405000D01*
X110281426Y-85460147D01*
X110020273Y-85568320D01*
X109785241Y-85725363D01*
X109585363Y-85925241D01*
X109428320Y-86160273D01*
X109320147Y-86421426D01*
X109265000Y-86698665D01*
X108635000Y-86698665D01*
X108635000Y-86658665D01*
X108579853Y-86381426D01*
X108471680Y-86120273D01*
X108314637Y-85885241D01*
X108114759Y-85685363D01*
X107879727Y-85528320D01*
X107618574Y-85420147D01*
X107341335Y-85365000D01*
X107058665Y-85365000D01*
X106781426Y-85420147D01*
X106520273Y-85528320D01*
X106285241Y-85685363D01*
X106085363Y-85885241D01*
X105928320Y-86120273D01*
X105820147Y-86381426D01*
X105765000Y-86658665D01*
X102749000Y-86658665D01*
X102749000Y-85308235D01*
X103768236Y-84289000D01*
X106068151Y-84289000D01*
X106085363Y-84314759D01*
X106285241Y-84514637D01*
X106520273Y-84671680D01*
X106781426Y-84779853D01*
X107058665Y-84835000D01*
X107341335Y-84835000D01*
X107618574Y-84779853D01*
X107879727Y-84671680D01*
X108114759Y-84514637D01*
X108314637Y-84314759D01*
X108471680Y-84079727D01*
X108579853Y-83818574D01*
X108635000Y-83541335D01*
X108635000Y-83258665D01*
X108628956Y-83228279D01*
X116257742Y-75599494D01*
X116291659Y-75571659D01*
X116402753Y-75436291D01*
X116485303Y-75281851D01*
X116516281Y-75179727D01*
X116536136Y-75114275D01*
X116537771Y-75097675D01*
X116549000Y-74983667D01*
X116549000Y-74983660D01*
X116553300Y-74940000D01*
X116549000Y-74896340D01*
X116549000Y-73231849D01*
X116574759Y-73214637D01*
X116774637Y-73014759D01*
X116931680Y-72779727D01*
X117039853Y-72518574D01*
X117095000Y-72241335D01*
X117095000Y-71958665D01*
X117039853Y-71681426D01*
X116931680Y-71420273D01*
X116774637Y-71185241D01*
X116574759Y-70985363D01*
X116339727Y-70828320D01*
X116119950Y-70737286D01*
X117511743Y-69345493D01*
X117545660Y-69317658D01*
X117656754Y-69182290D01*
X117739304Y-69027850D01*
X117771309Y-68922342D01*
X117790137Y-68860274D01*
X117791772Y-68843674D01*
X117803001Y-68729666D01*
X117803001Y-68729659D01*
X117807301Y-68685999D01*
X117803001Y-68642339D01*
X117803001Y-60897669D01*
X117807302Y-60854001D01*
X117790137Y-60679726D01*
X117774717Y-60628893D01*
X117739304Y-60512150D01*
X117656754Y-60357710D01*
X117545660Y-60222342D01*
X117511744Y-60194508D01*
X116988956Y-59671720D01*
X116995000Y-59641335D01*
X116995000Y-59358665D01*
X116939853Y-59081426D01*
X116831680Y-58820273D01*
X116674637Y-58585241D01*
X116474759Y-58385363D01*
X116239727Y-58228320D01*
X115978574Y-58120147D01*
X115701335Y-58065000D01*
X115418665Y-58065000D01*
X115141426Y-58120147D01*
X114880273Y-58228320D01*
X114645241Y-58385363D01*
X114445363Y-58585241D01*
X114288320Y-58820273D01*
X114180147Y-59081426D01*
X114125000Y-59358665D01*
X114125000Y-59641335D01*
X114180147Y-59918574D01*
X114288320Y-60179727D01*
X114445363Y-60414759D01*
X114645241Y-60614637D01*
X114880273Y-60771680D01*
X115141426Y-60879853D01*
X115418665Y-60935000D01*
X115701335Y-60935000D01*
X115731720Y-60928956D01*
X116025001Y-61222237D01*
X116025001Y-64409491D01*
X115801335Y-64365000D01*
X115518665Y-64365000D01*
X115241426Y-64420147D01*
X114980273Y-64528320D01*
X114745241Y-64685363D01*
X114545363Y-64885241D01*
X114528151Y-64911000D01*
X111843659Y-64911000D01*
X111799999Y-64906700D01*
X111756339Y-64911000D01*
X111756333Y-64911000D01*
X111658924Y-64920594D01*
X111625724Y-64923864D01*
X111524058Y-64954704D01*
X111458149Y-64974697D01*
X111303709Y-65057247D01*
X111168341Y-65168341D01*
X111140506Y-65202258D01*
X105671721Y-70671044D01*
X105641335Y-70665000D01*
X105358665Y-70665000D01*
X105081426Y-70720147D01*
X104820273Y-70828320D01*
X104585241Y-70985363D01*
X104385363Y-71185241D01*
X104368151Y-71211000D01*
X102787029Y-71211000D01*
X102814236Y-71121309D01*
X102841943Y-70840000D01*
X102814236Y-70558691D01*
X102732182Y-70288192D01*
X102598932Y-70038899D01*
X102419608Y-69820392D01*
X102201101Y-69641068D01*
X102073259Y-69572735D01*
X102302839Y-69422601D01*
X102504500Y-69224895D01*
X102663715Y-68991646D01*
X102774367Y-68731818D01*
X102791904Y-68649039D01*
X102669915Y-68427000D01*
X101127000Y-68427000D01*
X101127000Y-68447000D01*
X100873000Y-68447000D01*
X100873000Y-68427000D01*
X99330085Y-68427000D01*
X99208096Y-68649039D01*
X99225633Y-68731818D01*
X99336285Y-68991646D01*
X99495500Y-69224895D01*
X99697161Y-69422601D01*
X99926741Y-69572735D01*
X99798899Y-69641068D01*
X99580392Y-69820392D01*
X99401068Y-70038899D01*
X99267818Y-70288192D01*
X99185764Y-70558691D01*
X99158057Y-70840000D01*
X99185764Y-71121309D01*
X99267818Y-71391808D01*
X99401068Y-71641101D01*
X99580392Y-71859608D01*
X99798899Y-72038932D01*
X99931858Y-72110000D01*
X99798899Y-72181068D01*
X99580392Y-72360392D01*
X99401068Y-72578899D01*
X99267818Y-72828192D01*
X99185764Y-73098691D01*
X99158057Y-73380000D01*
X99185764Y-73661309D01*
X99267818Y-73931808D01*
X99401068Y-74181101D01*
X99580392Y-74399608D01*
X99798899Y-74578932D01*
X99926741Y-74647265D01*
X99697161Y-74797399D01*
X99495500Y-74995105D01*
X99336285Y-75228354D01*
X99225633Y-75488182D01*
X99208096Y-75570961D01*
X99330085Y-75793000D01*
X100873000Y-75793000D01*
X100873000Y-75773000D01*
X101127000Y-75773000D01*
X101127000Y-75793000D01*
X102669915Y-75793000D01*
X102791904Y-75570961D01*
X102774367Y-75488182D01*
X102663715Y-75228354D01*
X102504500Y-74995105D01*
X102302839Y-74797399D01*
X102073259Y-74647265D01*
X102201101Y-74578932D01*
X102419608Y-74399608D01*
X102598932Y-74181101D01*
X102732182Y-73931808D01*
X102814236Y-73661309D01*
X102841943Y-73380000D01*
X102814236Y-73098691D01*
X102780962Y-72989000D01*
X104368151Y-72989000D01*
X104385363Y-73014759D01*
X104585241Y-73214637D01*
X104820273Y-73371680D01*
X105081426Y-73479853D01*
X105358665Y-73535000D01*
X105641335Y-73535000D01*
X105918574Y-73479853D01*
X106179727Y-73371680D01*
X106414759Y-73214637D01*
X106614637Y-73014759D01*
X106771680Y-72779727D01*
X106879853Y-72518574D01*
X106935000Y-72241335D01*
X106935000Y-71958665D01*
X106928956Y-71928279D01*
X112168236Y-66689000D01*
X114528151Y-66689000D01*
X114545363Y-66714759D01*
X114745241Y-66914637D01*
X114980273Y-67071680D01*
X115241426Y-67179853D01*
X115518665Y-67235000D01*
X115801335Y-67235000D01*
X116025002Y-67190509D01*
X116025002Y-68317762D01*
X107371721Y-76971044D01*
X107341335Y-76965000D01*
X107058665Y-76965000D01*
X106781426Y-77020147D01*
X106520273Y-77128320D01*
X106285241Y-77285363D01*
X106085363Y-77485241D01*
X106028061Y-77571000D01*
X102526795Y-77571000D01*
X102419608Y-77440392D01*
X102201101Y-77261068D01*
X102073259Y-77192735D01*
X102302839Y-77042601D01*
X102504500Y-76844895D01*
X102663715Y-76611646D01*
X102774367Y-76351818D01*
X102791904Y-76269039D01*
X102669915Y-76047000D01*
X101127000Y-76047000D01*
X101127000Y-76067000D01*
X100873000Y-76067000D01*
X100873000Y-76047000D01*
X99330085Y-76047000D01*
X99208096Y-76269039D01*
X99225633Y-76351818D01*
X99336285Y-76611646D01*
X99495500Y-76844895D01*
X99697161Y-77042601D01*
X99926741Y-77192735D01*
X99798899Y-77261068D01*
X99580392Y-77440392D01*
X99401068Y-77658899D01*
X99267818Y-77908192D01*
X99185764Y-78178691D01*
X99158057Y-78460000D01*
X99185764Y-78741309D01*
X99267818Y-79011808D01*
X99401068Y-79261101D01*
X99580392Y-79479608D01*
X99693482Y-79572419D01*
X99675518Y-79574188D01*
X99555820Y-79610498D01*
X99445506Y-79669463D01*
X99348815Y-79748815D01*
X99269463Y-79845506D01*
X99210498Y-79955820D01*
X99174188Y-80075518D01*
X99161928Y-80200000D01*
X99161928Y-81365010D01*
X95168846Y-81365010D01*
X95194236Y-81281309D01*
X95221943Y-81000000D01*
X95194236Y-80718691D01*
X95130071Y-80507165D01*
X96339762Y-79297474D01*
X96373679Y-79269639D01*
X96484773Y-79134271D01*
X96567323Y-78979831D01*
X96618156Y-78812254D01*
X96631020Y-78681647D01*
X96631020Y-78681640D01*
X96635320Y-78637980D01*
X96631020Y-78594320D01*
X96631020Y-60585680D01*
X96635320Y-60542020D01*
X96631020Y-60498360D01*
X96631020Y-60498353D01*
X96618156Y-60367746D01*
X96615112Y-60357709D01*
X96567322Y-60200167D01*
X96545582Y-60159495D01*
X96484773Y-60045729D01*
X96373679Y-59910361D01*
X96339763Y-59882527D01*
X87306052Y-50848816D01*
X93565000Y-50848816D01*
X93565000Y-51151184D01*
X93623989Y-51447743D01*
X93739701Y-51727095D01*
X93907688Y-51978505D01*
X94121495Y-52192312D01*
X94372905Y-52360299D01*
X94652257Y-52476011D01*
X94948816Y-52535000D01*
X95251184Y-52535000D01*
X95356764Y-52513999D01*
X100111000Y-57268236D01*
X100111001Y-64408765D01*
X100048192Y-64427818D01*
X99798899Y-64561068D01*
X99580392Y-64740392D01*
X99401068Y-64958899D01*
X99267818Y-65208192D01*
X99185764Y-65478691D01*
X99158057Y-65760000D01*
X99185764Y-66041309D01*
X99267818Y-66311808D01*
X99401068Y-66561101D01*
X99580392Y-66779608D01*
X99798899Y-66958932D01*
X99926741Y-67027265D01*
X99697161Y-67177399D01*
X99495500Y-67375105D01*
X99336285Y-67608354D01*
X99225633Y-67868182D01*
X99208096Y-67950961D01*
X99330085Y-68173000D01*
X100873000Y-68173000D01*
X100873000Y-68153000D01*
X101127000Y-68153000D01*
X101127000Y-68173000D01*
X102669915Y-68173000D01*
X102791904Y-67950961D01*
X102774367Y-67868182D01*
X102663715Y-67608354D01*
X102504500Y-67375105D01*
X102302839Y-67177399D01*
X102073259Y-67027265D01*
X102201101Y-66958932D01*
X102419608Y-66779608D01*
X102526795Y-66649000D01*
X104341424Y-66649000D01*
X104385363Y-66714759D01*
X104585241Y-66914637D01*
X104820273Y-67071680D01*
X105081426Y-67179853D01*
X105358665Y-67235000D01*
X105641335Y-67235000D01*
X105918574Y-67179853D01*
X106179727Y-67071680D01*
X106414759Y-66914637D01*
X106614637Y-66714759D01*
X106771680Y-66479727D01*
X106879853Y-66218574D01*
X106935000Y-65941335D01*
X106935000Y-65658665D01*
X106879853Y-65381426D01*
X106771680Y-65120273D01*
X106614637Y-64885241D01*
X106414759Y-64685363D01*
X106179727Y-64528320D01*
X105918574Y-64420147D01*
X105641335Y-64365000D01*
X105358665Y-64365000D01*
X105081426Y-64420147D01*
X104820273Y-64528320D01*
X104585241Y-64685363D01*
X104399604Y-64871000D01*
X102526795Y-64871000D01*
X102419608Y-64740392D01*
X102201101Y-64561068D01*
X101951808Y-64427818D01*
X101889000Y-64408766D01*
X101889000Y-57246235D01*
X103971044Y-59328280D01*
X103965000Y-59358665D01*
X103965000Y-59641335D01*
X104020147Y-59918574D01*
X104128320Y-60179727D01*
X104285363Y-60414759D01*
X104485241Y-60614637D01*
X104720273Y-60771680D01*
X104981426Y-60879853D01*
X105258665Y-60935000D01*
X105541335Y-60935000D01*
X105818574Y-60879853D01*
X106079727Y-60771680D01*
X106314759Y-60614637D01*
X106514637Y-60414759D01*
X106671680Y-60179727D01*
X106779853Y-59918574D01*
X106835000Y-59641335D01*
X106835000Y-59358665D01*
X106779853Y-59081426D01*
X106671680Y-58820273D01*
X106514637Y-58585241D01*
X106314759Y-58385363D01*
X106079727Y-58228320D01*
X105818574Y-58120147D01*
X105541335Y-58065000D01*
X105258665Y-58065000D01*
X105228280Y-58071044D01*
X100989000Y-53831765D01*
X100989000Y-52538072D01*
X101000000Y-52538072D01*
X101124482Y-52525812D01*
X101244180Y-52489502D01*
X101354494Y-52430537D01*
X101451185Y-52351185D01*
X101530537Y-52254494D01*
X101589502Y-52144180D01*
X101625812Y-52024482D01*
X101638072Y-51900000D01*
X101638072Y-50100000D01*
X101625812Y-49975518D01*
X101589502Y-49855820D01*
X101530537Y-49745506D01*
X101451185Y-49648815D01*
X101354494Y-49569463D01*
X101244180Y-49510498D01*
X101124482Y-49474188D01*
X101000000Y-49461928D01*
X99200000Y-49461928D01*
X99075518Y-49474188D01*
X98955820Y-49510498D01*
X98845506Y-49569463D01*
X98748815Y-49648815D01*
X98669463Y-49745506D01*
X98616120Y-49845303D01*
X98578505Y-49807688D01*
X98327095Y-49639701D01*
X98047743Y-49523989D01*
X97751184Y-49465000D01*
X97448816Y-49465000D01*
X97152257Y-49523989D01*
X96872905Y-49639701D01*
X96621495Y-49807688D01*
X96407688Y-50021495D01*
X96350000Y-50107831D01*
X96292312Y-50021495D01*
X96078505Y-49807688D01*
X95827095Y-49639701D01*
X95547743Y-49523989D01*
X95251184Y-49465000D01*
X94948816Y-49465000D01*
X94652257Y-49523989D01*
X94372905Y-49639701D01*
X94121495Y-49807688D01*
X93907688Y-50021495D01*
X93739701Y-50272905D01*
X93623989Y-50552257D01*
X93565000Y-50848816D01*
X87306052Y-50848816D01*
X80238072Y-43780837D01*
X80238072Y-43142003D01*
X90805000Y-43142003D01*
X90805000Y-43857998D01*
X90833867Y-44151088D01*
X90947943Y-44527147D01*
X91133193Y-44873725D01*
X91382498Y-45177503D01*
X91686276Y-45426807D01*
X92032854Y-45612057D01*
X92408913Y-45726133D01*
X92800000Y-45764652D01*
X93191088Y-45726133D01*
X93567147Y-45612057D01*
X93913725Y-45426807D01*
X94217503Y-45177503D01*
X94466807Y-44873725D01*
X94652057Y-44527147D01*
X94766133Y-44151087D01*
X94795000Y-43857997D01*
X94795000Y-43142003D01*
X100405000Y-43142003D01*
X100405000Y-43857998D01*
X100433867Y-44151088D01*
X100547943Y-44527147D01*
X100733193Y-44873725D01*
X100982498Y-45177503D01*
X101286276Y-45426807D01*
X101632854Y-45612057D01*
X102008913Y-45726133D01*
X102400000Y-45764652D01*
X102791088Y-45726133D01*
X103167147Y-45612057D01*
X103513725Y-45426807D01*
X103817503Y-45177503D01*
X104066807Y-44873725D01*
X104252057Y-44527147D01*
X104366133Y-44151087D01*
X104395000Y-43857997D01*
X104395000Y-43142002D01*
X104366133Y-42848912D01*
X104252057Y-42472853D01*
X104066807Y-42126275D01*
X103817503Y-41822497D01*
X103513725Y-41573193D01*
X103167146Y-41387943D01*
X102791087Y-41273867D01*
X102400000Y-41235348D01*
X102008912Y-41273867D01*
X101632853Y-41387943D01*
X101286275Y-41573193D01*
X100982497Y-41822497D01*
X100733193Y-42126275D01*
X100547943Y-42472854D01*
X100433867Y-42848913D01*
X100405000Y-43142003D01*
X94795000Y-43142003D01*
X94795000Y-43142002D01*
X94766133Y-42848912D01*
X94652057Y-42472853D01*
X94466807Y-42126275D01*
X94217503Y-41822497D01*
X93913725Y-41573193D01*
X93567146Y-41387943D01*
X93191087Y-41273867D01*
X92800000Y-41235348D01*
X92408912Y-41273867D01*
X92032853Y-41387943D01*
X91686275Y-41573193D01*
X91382497Y-41822497D01*
X91133193Y-42126275D01*
X90947943Y-42472854D01*
X90833867Y-42848913D01*
X90805000Y-43142003D01*
X80238072Y-43142003D01*
X80238072Y-42600000D01*
X80225812Y-42475518D01*
X80189502Y-42355820D01*
X80130537Y-42245506D01*
X80051185Y-42148815D01*
X79954494Y-42069463D01*
X79844180Y-42010498D01*
X79724482Y-41974188D01*
X79600000Y-41961928D01*
X77800000Y-41961928D01*
X77675518Y-41974188D01*
X77555820Y-42010498D01*
X77445506Y-42069463D01*
X77348815Y-42148815D01*
X77269463Y-42245506D01*
X77210498Y-42355820D01*
X77204944Y-42374127D01*
X77138505Y-42307688D01*
X76887095Y-42139701D01*
X76607743Y-42023989D01*
X76311184Y-41965000D01*
X76008816Y-41965000D01*
X75712257Y-42023989D01*
X75432905Y-42139701D01*
X75181495Y-42307688D01*
X74967688Y-42521495D01*
X74799701Y-42772905D01*
X74683989Y-43052257D01*
X74625000Y-43348816D01*
X73660000Y-43348816D01*
X73660000Y-37660000D01*
X123340001Y-37660000D01*
X123340000Y-112340000D01*
G37*
%TD.AperFunction*%
%TD*%
M02*
