%TF.GenerationSoftware,KiCad,Pcbnew,5.1.10-88a1d61d58~90~ubuntu21.04.1*%
%TF.CreationDate,2021-10-08T21:36:15+02:00*%
%TF.ProjectId,lfo,6c666f2e-6b69-4636-9164-5f7063625858,v1.0.0*%
%TF.SameCoordinates,Original*%
%TF.FileFunction,Legend,Bot*%
%TF.FilePolarity,Positive*%
%FSLAX46Y46*%
G04 Gerber Fmt 4.6, Leading zero omitted, Abs format (unit mm)*
G04 Created by KiCad (PCBNEW 5.1.10-88a1d61d58~90~ubuntu21.04.1) date 2021-10-08 21:36:15*
%MOMM*%
%LPD*%
G01*
G04 APERTURE LIST*
%ADD10C,0.120000*%
%ADD11C,0.150000*%
G04 APERTURE END LIST*
D10*
%TO.C,RV3*%
X95840000Y-110120000D02*
X96670000Y-110120000D01*
X98290000Y-110120000D02*
X98820000Y-110120000D01*
X101190000Y-110120000D02*
X102370000Y-110120000D01*
X92630000Y-110120000D02*
X92630000Y-105400000D01*
X102370000Y-101590000D02*
X102370000Y-98530000D01*
X102380000Y-110120000D02*
X102380000Y-105400000D01*
X92630000Y-101590000D02*
X92630000Y-98530000D01*
X92630000Y-110120000D02*
X94120000Y-110120000D01*
X92630000Y-98530000D02*
X102370000Y-98530000D01*
%TO.C,RV2*%
X95940000Y-50120000D02*
X96770000Y-50120000D01*
X98390000Y-50120000D02*
X98920000Y-50120000D01*
X101290000Y-50120000D02*
X102470000Y-50120000D01*
X92730000Y-50120000D02*
X92730000Y-45400000D01*
X102470000Y-41590000D02*
X102470000Y-38530000D01*
X102480000Y-50120000D02*
X102480000Y-45400000D01*
X92730000Y-41590000D02*
X92730000Y-38530000D01*
X92730000Y-50120000D02*
X94220000Y-50120000D01*
X92730000Y-38530000D02*
X102470000Y-38530000D01*
%TO.C,D1*%
X79990000Y-41955000D02*
X79990000Y-45045000D01*
X79930000Y-43500000D02*
G75*
G03*
X79930000Y-43500000I-2500000J0D01*
G01*
X74440000Y-43499538D02*
G75*
G03*
X79990000Y-45044830I2990000J-462D01*
G01*
X74440000Y-43500462D02*
G75*
G02*
X79990000Y-41955170I2990000J462D01*
G01*
%TO.C,RV3*%
D11*
X105092380Y-103694761D02*
X104616190Y-103361428D01*
X105092380Y-103123333D02*
X104092380Y-103123333D01*
X104092380Y-103504285D01*
X104140000Y-103599523D01*
X104187619Y-103647142D01*
X104282857Y-103694761D01*
X104425714Y-103694761D01*
X104520952Y-103647142D01*
X104568571Y-103599523D01*
X104616190Y-103504285D01*
X104616190Y-103123333D01*
X104092380Y-103980476D02*
X105092380Y-104313809D01*
X104092380Y-104647142D01*
X104092380Y-104885238D02*
X104092380Y-105504285D01*
X104473333Y-105170952D01*
X104473333Y-105313809D01*
X104520952Y-105409047D01*
X104568571Y-105456666D01*
X104663809Y-105504285D01*
X104901904Y-105504285D01*
X104997142Y-105456666D01*
X105044761Y-105409047D01*
X105092380Y-105313809D01*
X105092380Y-105028095D01*
X105044761Y-104932857D01*
X104997142Y-104885238D01*
X101142857Y-108852380D02*
X101619047Y-108852380D01*
X101619047Y-107852380D01*
X100809523Y-108328571D02*
X100476190Y-108328571D01*
X100333333Y-108852380D02*
X100809523Y-108852380D01*
X100809523Y-107852380D01*
X100333333Y-107852380D01*
X100047619Y-107852380D02*
X99714285Y-108852380D01*
X99380952Y-107852380D01*
X99047619Y-108328571D02*
X98714285Y-108328571D01*
X98571428Y-108852380D02*
X99047619Y-108852380D01*
X99047619Y-107852380D01*
X98571428Y-107852380D01*
X97666666Y-108852380D02*
X98142857Y-108852380D01*
X98142857Y-107852380D01*
X96047619Y-108852380D02*
X96619047Y-108852380D01*
X96333333Y-108852380D02*
X96333333Y-107852380D01*
X96428571Y-107995238D01*
X96523809Y-108090476D01*
X96619047Y-108138095D01*
X95428571Y-107852380D02*
X95333333Y-107852380D01*
X95238095Y-107900000D01*
X95190476Y-107947619D01*
X95142857Y-108042857D01*
X95095238Y-108233333D01*
X95095238Y-108471428D01*
X95142857Y-108661904D01*
X95190476Y-108757142D01*
X95238095Y-108804761D01*
X95333333Y-108852380D01*
X95428571Y-108852380D01*
X95523809Y-108804761D01*
X95571428Y-108757142D01*
X95619047Y-108661904D01*
X95666666Y-108471428D01*
X95666666Y-108233333D01*
X95619047Y-108042857D01*
X95571428Y-107947619D01*
X95523809Y-107900000D01*
X95428571Y-107852380D01*
X94476190Y-107852380D02*
X94380952Y-107852380D01*
X94285714Y-107900000D01*
X94238095Y-107947619D01*
X94190476Y-108042857D01*
X94142857Y-108233333D01*
X94142857Y-108471428D01*
X94190476Y-108661904D01*
X94238095Y-108757142D01*
X94285714Y-108804761D01*
X94380952Y-108852380D01*
X94476190Y-108852380D01*
X94571428Y-108804761D01*
X94619047Y-108757142D01*
X94666666Y-108661904D01*
X94714285Y-108471428D01*
X94714285Y-108233333D01*
X94666666Y-108042857D01*
X94619047Y-107947619D01*
X94571428Y-107900000D01*
X94476190Y-107852380D01*
X93714285Y-108852380D02*
X93714285Y-107852380D01*
X93619047Y-108471428D02*
X93333333Y-108852380D01*
X93333333Y-108185714D02*
X93714285Y-108566666D01*
%TO.C,RV2*%
X105192380Y-43694761D02*
X104716190Y-43361428D01*
X105192380Y-43123333D02*
X104192380Y-43123333D01*
X104192380Y-43504285D01*
X104240000Y-43599523D01*
X104287619Y-43647142D01*
X104382857Y-43694761D01*
X104525714Y-43694761D01*
X104620952Y-43647142D01*
X104668571Y-43599523D01*
X104716190Y-43504285D01*
X104716190Y-43123333D01*
X104192380Y-43980476D02*
X105192380Y-44313809D01*
X104192380Y-44647142D01*
X104287619Y-44932857D02*
X104240000Y-44980476D01*
X104192380Y-45075714D01*
X104192380Y-45313809D01*
X104240000Y-45409047D01*
X104287619Y-45456666D01*
X104382857Y-45504285D01*
X104478095Y-45504285D01*
X104620952Y-45456666D01*
X105192380Y-44885238D01*
X105192380Y-45504285D01*
X100380952Y-54452380D02*
X100714285Y-53976190D01*
X100952380Y-54452380D02*
X100952380Y-53452380D01*
X100571428Y-53452380D01*
X100476190Y-53500000D01*
X100428571Y-53547619D01*
X100380952Y-53642857D01*
X100380952Y-53785714D01*
X100428571Y-53880952D01*
X100476190Y-53928571D01*
X100571428Y-53976190D01*
X100952380Y-53976190D01*
X100000000Y-54166666D02*
X99523809Y-54166666D01*
X100095238Y-54452380D02*
X99761904Y-53452380D01*
X99428571Y-54452380D01*
X99238095Y-53452380D02*
X98666666Y-53452380D01*
X98952380Y-54452380D02*
X98952380Y-53452380D01*
X98333333Y-53928571D02*
X98000000Y-53928571D01*
X97857142Y-54452380D02*
X98333333Y-54452380D01*
X98333333Y-53452380D01*
X97857142Y-53452380D01*
X96142857Y-54452380D02*
X96714285Y-54452380D01*
X96428571Y-54452380D02*
X96428571Y-53452380D01*
X96523809Y-53595238D01*
X96619047Y-53690476D01*
X96714285Y-53738095D01*
X95714285Y-54452380D02*
X95714285Y-53452380D01*
X95380952Y-54166666D01*
X95047619Y-53452380D01*
X95047619Y-54452380D01*
%TO.C,D1*%
X78168095Y-39992380D02*
X78168095Y-38992380D01*
X77930000Y-38992380D01*
X77787142Y-39040000D01*
X77691904Y-39135238D01*
X77644285Y-39230476D01*
X77596666Y-39420952D01*
X77596666Y-39563809D01*
X77644285Y-39754285D01*
X77691904Y-39849523D01*
X77787142Y-39944761D01*
X77930000Y-39992380D01*
X78168095Y-39992380D01*
X76644285Y-39992380D02*
X77215714Y-39992380D01*
X76930000Y-39992380D02*
X76930000Y-38992380D01*
X77025238Y-39135238D01*
X77120476Y-39230476D01*
X77215714Y-39278095D01*
X83690476Y-48452380D02*
X84166666Y-48452380D01*
X84166666Y-47452380D01*
X83357142Y-47928571D02*
X83023809Y-47928571D01*
X82880952Y-48452380D02*
X83357142Y-48452380D01*
X83357142Y-47452380D01*
X82880952Y-47452380D01*
X82452380Y-48452380D02*
X82452380Y-47452380D01*
X82214285Y-47452380D01*
X82071428Y-47500000D01*
X81976190Y-47595238D01*
X81928571Y-47690476D01*
X81880952Y-47880952D01*
X81880952Y-48023809D01*
X81928571Y-48214285D01*
X81976190Y-48309523D01*
X82071428Y-48404761D01*
X82214285Y-48452380D01*
X82452380Y-48452380D01*
X81690476Y-48547619D02*
X80928571Y-48547619D01*
X80690476Y-48452380D02*
X80690476Y-47452380D01*
X80452380Y-47452380D01*
X80309523Y-47500000D01*
X80214285Y-47595238D01*
X80166666Y-47690476D01*
X80119047Y-47880952D01*
X80119047Y-48023809D01*
X80166666Y-48214285D01*
X80214285Y-48309523D01*
X80309523Y-48404761D01*
X80452380Y-48452380D01*
X80690476Y-48452380D01*
X79261904Y-47785714D02*
X79261904Y-48452380D01*
X79690476Y-47785714D02*
X79690476Y-48309523D01*
X79642857Y-48404761D01*
X79547619Y-48452380D01*
X79404761Y-48452380D01*
X79309523Y-48404761D01*
X79261904Y-48357142D01*
X78357142Y-48452380D02*
X78357142Y-47928571D01*
X78404761Y-47833333D01*
X78500000Y-47785714D01*
X78690476Y-47785714D01*
X78785714Y-47833333D01*
X78357142Y-48404761D02*
X78452380Y-48452380D01*
X78690476Y-48452380D01*
X78785714Y-48404761D01*
X78833333Y-48309523D01*
X78833333Y-48214285D01*
X78785714Y-48119047D01*
X78690476Y-48071428D01*
X78452380Y-48071428D01*
X78357142Y-48023809D01*
X77738095Y-48452380D02*
X77833333Y-48404761D01*
X77880952Y-48309523D01*
X77880952Y-47452380D01*
X77595238Y-48547619D02*
X76833333Y-48547619D01*
X76642857Y-47547619D02*
X76595238Y-47500000D01*
X76499999Y-47452380D01*
X76261904Y-47452380D01*
X76166666Y-47500000D01*
X76119047Y-47547619D01*
X76071428Y-47642857D01*
X76071428Y-47738095D01*
X76119047Y-47880952D01*
X76690476Y-48452380D01*
X76071428Y-48452380D01*
X75642857Y-47785714D02*
X75642857Y-48785714D01*
X75642857Y-47833333D02*
X75547619Y-47785714D01*
X75357142Y-47785714D01*
X75261904Y-47833333D01*
X75214285Y-47880952D01*
X75166666Y-47976190D01*
X75166666Y-48261904D01*
X75214285Y-48357142D01*
X75261904Y-48404761D01*
X75357142Y-48452380D01*
X75547619Y-48452380D01*
X75642857Y-48404761D01*
X74738095Y-48452380D02*
X74738095Y-47785714D01*
X74738095Y-47452380D02*
X74785714Y-47500000D01*
X74738095Y-47547619D01*
X74690476Y-47500000D01*
X74738095Y-47452380D01*
X74738095Y-47547619D01*
X74261904Y-47785714D02*
X74261904Y-48452380D01*
X74261904Y-47880952D02*
X74214285Y-47833333D01*
X74119047Y-47785714D01*
X73976190Y-47785714D01*
X73880952Y-47833333D01*
X73833333Y-47928571D01*
X73833333Y-48452380D01*
%TD*%
M02*
